<svg xmlns="http://www.w3.org/2000/svg" xmlns:xlink="http://www.w3.org/1999/xlink" version="1.1" x="0px" y="0px" viewBox="0 0 100 100" enable-background="new 0 0 100 100" xml:space="preserve"><g><rect x="51.956" y="24.566" width="3.913" height="3.913"></rect><rect x="48.043" y="32.392" width="3.913" height="3.913"></rect><rect x="28.478" y="40.218" width="3.914" height="3.913"></rect><polygon points="71.521,44.13 71.521,48.043 71.521,48.044 71.521,51.957 71.521,51.957 71.521,55.869 71.521,55.87 71.521,59.783    71.521,61.739 71.521,63.695 71.521,67.608 75.435,67.608 75.435,63.695 75.435,61.739 75.435,59.783 75.435,55.87 75.435,55.869    75.435,51.957 75.435,51.957 75.435,48.044 75.435,48.043 75.435,44.13  "></polygon><polygon points="63.695,67.608 63.695,67.607 63.695,63.695 63.695,59.782 63.695,55.87 63.695,55.87 63.695,55.869 63.695,55.869    63.695,51.957 63.695,48.044 63.695,48.044 63.695,48.043 59.783,48.043 59.783,48.044 59.783,51.957 59.783,55.869 59.783,55.87    59.783,59.782 59.783,61.739 59.783,63.695 59.783,67.607 59.783,71.521 59.783,75.435 59.783,79.347 59.783,83.261 59.781,83.261    59.781,87.173 59.783,87.173 59.783,87.174 59.782,87.174 59.781,87.174 55.869,87.174 51.956,87.174 51.956,83.261 51.956,83.261    51.956,79.349 51.956,79.347 51.956,75.435 48.043,75.435 48.043,79.347 48.043,79.349 48.043,83.261 48.043,83.261 48.043,87.174    44.13,87.174 40.218,87.174 40.217,87.174 40.217,83.261 40.217,79.349 40.217,79.347 40.217,76.204 40.217,75.435 40.217,71.521    40.217,69.18 40.217,67.607 40.217,63.695 40.217,62.6 40.217,59.782 40.217,55.87 40.217,55.869 40.217,53.442 40.217,52.562    40.217,51.957 40.217,48.044 40.217,48.043 44.13,48.043 44.13,44.13 48.043,44.13 48.043,48.043 51.956,48.043 55.869,48.043    59.783,48.043 59.783,44.13 55.869,44.13 51.956,44.13 48.044,44.13 48.044,40.218 44.13,40.218 44.13,40.217 44.13,36.304    44.13,32.392 44.13,28.479 44.13,24.566 44.13,24.565 44.13,20.652 44.13,16.74 44.13,16.739 48.043,16.739 48.044,16.739    51.956,16.739 55.869,16.739 59.783,16.739 63.695,16.739 63.695,16.739 63.695,16.74 63.695,16.74 63.695,20.652 63.695,24.565    63.695,24.565 63.695,24.566 63.695,24.566 59.783,24.566 59.783,28.479 63.695,28.479 63.695,32.392 63.695,36.304 59.783,36.304    55.869,36.304 51.956,36.304 51.956,40.217 55.869,40.217 59.782,40.217 59.782,43.217 59.783,43.217 59.783,44.13 63.695,44.13    63.695,43.217 63.695,40.218 63.695,40.217 67.608,40.217 67.608,36.304 67.608,32.392 67.608,30.435 67.608,28.479 67.608,24.566    67.608,24.565 67.608,20.652 67.608,16.74 67.608,16.739 67.608,12.826 67.608,12.826 67.608,10.87 67.608,8.913 63.695,8.913    63.695,8.913 63.695,6.956 63.695,5 59.783,5 55.869,5 51.956,5 48.044,5 48.043,5 44.13,5 36.304,5 36.304,6.956 36.304,8.913    36.304,8.913 32.392,8.913 32.392,20.652 32.392,22.144 32.392,24.565 32.392,24.566 32.392,27.923 32.392,28.479 32.392,32.392    32.392,36.304 32.392,40.217 36.304,40.217 36.304,40.218 36.304,44.13 36.304,44.927 36.304,48.043 36.304,48.044 36.304,51.957    36.304,52.562 36.304,53.442 36.304,55.869 36.304,55.87 36.304,59.782 36.304,62.6 36.304,63.695 36.304,67.607 32.392,67.607    28.478,67.607 28.478,63.695 28.478,59.783 28.478,55.871 28.478,55.87 28.478,51.957 28.478,51.957 28.478,48.044 28.478,48.043    28.478,44.13 24.565,44.13 24.565,48.043 24.565,48.044 24.565,51.957 24.565,51.957 24.565,55.87 24.565,55.871 24.565,59.783    24.565,63.695 24.565,67.607 24.565,67.609 28.478,67.609 28.478,71.521 32.392,71.521 36.304,71.521 36.304,75.435 36.304,76.204    36.304,79.347 36.304,79.349 36.304,83.261 36.304,87.174 36.304,87.175 32.392,87.175 32.392,89.986 32.392,91.086 32.392,91.087    32.392,93.364 32.392,94.999 36.305,94.999 40.217,94.999 40.218,94.999 44.13,94.999 48.043,94.999 48.043,95 51.956,95    51.956,94.999 55.869,94.999 59.781,94.999 59.782,94.999 63.695,94.999 67.608,94.999 67.608,91.087 67.608,87.174 63.695,87.174    63.695,87.173 63.695,83.261 63.695,83.261 63.695,79.347 63.695,77.982 63.695,75.435 63.695,71.521 67.608,71.521 71.521,71.521    71.521,67.608 67.608,67.608  "></polygon><rect x="67.608" y="40.218" width="3.913" height="3.913"></rect></g></svg>