<svg xmlns="http://www.w3.org/2000/svg" xmlns:xlink="http://www.w3.org/1999/xlink" version="1.1" x="0px" y="0px" viewBox="0 0 100 100" enable-background="new 0 0 100 100" xml:space="preserve"><g><polygon points="24.548,49.25 24.548,48.044 24.548,48.043 24.548,45.983 24.548,44.13 20.634,44.13 20.634,46.834 20.634,48.043    20.634,48.044 20.634,50.201 20.634,51.957 24.548,51.957  "></polygon><polygon points="28.46,40.218 32.373,40.218 32.373,40.217 32.373,38.261 32.373,36.304 29.56,36.304 28.46,36.304 24.548,36.304    24.548,38.689 24.548,40.217 24.548,40.218 24.548,41.92 24.548,44.13 28.46,44.13  "></polygon><polygon points="55.852,27.16 55.852,24.566 55.852,24.565 51.938,24.565 51.938,24.566 51.938,26.522 51.938,28.479    55.852,28.479  "></polygon><polygon points="20.634,59.783 20.634,55.871 20.634,55.869 20.634,53.812 20.634,51.957 19.55,51.957 16.721,51.957 16.721,54.69    16.721,55.869 16.721,55.871 16.721,58.707 16.721,59.783 16.721,63.696 16.721,67.608 18.678,67.608 18.805,67.608 20.634,67.608    20.634,63.696  "></polygon><rect x="44.112" y="32.392" width="3.914" height="3.913"></rect><polygon points="48.026,48.043 48.026,48.044 51.938,48.044 55.852,48.044 55.869,48.044 55.869,48.043 59.765,48.043    59.765,44.13 55.852,44.13 51.938,44.13 48.026,44.13 48.026,46.97  "></polygon><polygon points="36.287,83.261 32.373,83.261 32.373,79.348 32.373,75.435 36.287,75.435 36.287,71.522 40.199,71.522    40.199,71.522 40.199,67.608 40.199,64.732 40.199,63.696 40.199,59.783 40.199,58.126 40.199,55.871 40.199,55.869 40.199,53.812    40.199,51.957 40.199,50.607 40.199,48.044 40.199,48.043 36.287,48.043 36.287,48.044 36.287,49.25 36.287,51.957 32.373,51.957    32.373,55.869 28.46,55.869 28.46,55.871 28.46,59.783 32.373,59.783 32.373,63.696 32.373,67.608 28.46,67.608 24.548,67.608    20.634,67.608 20.634,71.522 24.548,71.522 28.46,71.522 29.56,71.522 29.56,75.435 28.46,75.435 28.46,79.348 24.548,79.348    24.548,83.261 20.634,83.261 16.721,83.261 16.721,85.604 16.721,87.173 16.721,87.175 12.809,87.175 12.809,91.086 12.809,95    16.721,95 16.722,95 20.634,95 24.548,95 28.46,95 32.373,95 36.287,95 40.199,95 44.112,95 44.112,91.086 44.112,89.393    44.112,88.665 44.112,87.175 44.112,87.173 44.112,84.476 44.112,83.261 40.199,83.261  "></polygon><polygon points="51.939,79.348 51.938,79.348 51.938,83.261 51.939,83.261 55.852,83.261 55.852,79.348  "></polygon><polygon points="87.156,87.21 87.156,83.261 83.243,83.261 79.33,83.261 79.329,83.261 75.417,83.261 75.417,79.348 71.504,79.348    71.504,75.435 75.418,75.435 75.418,71.522 79.33,71.522 79.33,68.745 79.348,68.745 79.348,67.608 83.243,67.608 83.243,63.696    83.243,59.783 83.243,57.917 83.243,55.871 83.243,55.869 83.243,53.653 83.243,51.957 79.348,51.957 79.348,47.397 79.33,47.397    79.33,44.13 75.418,44.13 75.418,36.304 75.417,36.304 71.504,36.304 67.59,36.304 67.59,32.392 67.59,28.479 67.59,27.575    67.59,24.566 67.59,24.565 67.59,22.188 67.59,20.652 67.59,16.74 67.59,16.739 71.504,16.739 71.504,14.962 71.504,12.826    71.504,12.826 71.504,10.87 71.504,8.914 67.59,8.914 67.59,8.913 67.59,5 63.678,5 63.677,5 59.765,5 55.852,5 51.938,5 48.769,5    48.026,5 48.026,7.403 48.026,8.913 48.026,8.914 44.112,8.914 40.199,8.914 40.199,11.406 40.199,12.826 40.199,12.826    36.287,12.826 36.287,15.011 36.287,16.739 36.287,16.74 36.287,16.74 36.287,16.74 32.373,16.74 32.373,20.652 32.373,22.911    32.373,24.565 32.373,24.566 32.373,26.727 32.373,28.479 36.287,28.479 36.287,32.392 32.373,32.392 32.373,36.304 36.287,36.304    40.199,36.304 40.199,32.392 40.199,28.479 36.287,28.479 36.287,27.16 36.287,24.566 36.287,24.565 36.287,22.759 36.287,20.652    40.199,20.652 44.112,20.652 48.026,20.652 48.026,16.74 51.938,16.74 55.852,16.74 59.765,16.74 63.678,16.74 63.678,20.652    63.678,24.565 59.765,24.565 59.765,24.566 59.765,27.16 59.765,28.479 63.678,28.479 63.678,32.392 63.678,36.304 59.765,36.304    55.852,36.304 51.938,36.304 48.026,36.304 48.026,40.217 44.112,40.217 44.112,36.304 40.199,36.304 40.199,38.261 40.199,40.217    40.199,40.218 40.2,40.218 40.2,40.218 44.113,40.218 44.113,44.13 44.113,44.13 48.026,44.13 48.026,40.218 51.938,40.218    55.852,40.218 59.765,40.218 59.765,44.13 63.677,44.13 63.677,40.218 67.59,40.218 71.504,40.218 71.504,44.13 75.417,44.13    75.417,46.6 75.417,48.043 75.417,48.044 75.417,49.25 75.417,51.957 79.33,51.957 79.33,54.675 79.33,55.869 79.33,55.871    79.33,58.126 79.33,59.783 79.33,63.696 79.33,67.608 75.417,67.608 71.504,67.608 67.59,67.608 67.59,63.696 67.59,59.783    71.504,59.783 71.504,58.126 71.504,55.871 71.504,55.869 67.59,55.869 67.59,51.957 63.677,51.957 63.677,49.25 63.677,48.044    63.677,48.043 59.782,48.043 59.782,51.957 59.765,51.957 59.765,53.812 59.765,55.869 59.765,55.871 59.765,58.126 59.765,59.783    59.765,63.696 59.765,64.732 59.765,67.608 59.765,71.522 59.765,71.522 63.678,71.522 63.678,75.435 67.59,75.435 67.59,79.348    67.59,83.261 63.678,83.261 63.677,83.261 59.765,83.261 55.852,83.261 55.852,85.598 55.852,87.173 55.852,87.175 55.852,91.086    55.852,95 59.765,95 63.677,95 63.678,95 67.59,95 71.504,95 75.417,95 79.329,95 79.33,95 83.243,95 87.156,95 87.156,91.766    87.156,91.086 87.156,89.147 87.191,87.21  "></polygon><polygon points="44.112,83.261 48.026,83.261 48.026,81.348 48.026,79.348 44.112,79.348  "></polygon><polygon points="51.938,75.435 48.026,75.435 48.026,79.348 51.938,79.348 51.938,79.34  "></polygon></g></svg>