<svg xmlns="http://www.w3.org/2000/svg" xmlns:xlink="http://www.w3.org/1999/xlink" version="1.1" x="0px" y="0px" viewBox="910 550 100 100" enable-background="new 910 550 100 100" xml:space="preserve"><g><path d="M953.106,590.195c0.435,0,0.787-0.353,0.787-0.787v-2.941c0-0.435-0.352-0.787-0.787-0.787s-0.787,0.352-0.787,0.787v2.941   C952.319,589.843,952.671,590.195,953.106,590.195z"></path><path d="M961.328,594.135c0.223-0.373,0.102-0.856-0.271-1.079c-0.373-0.224-0.855-0.103-1.079,0.27   c-1.119,1.865-3.354,1.788-3.457,1.782c-0.431-0.014-0.802,0.31-0.826,0.742c-0.024,0.434,0.308,0.805,0.742,0.829   c0.015,0,0.068,0.003,0.154,0.003C957.261,596.683,959.894,596.525,961.328,594.135z"></path><path d="M957.717,573.501c0.43,0,0.866,0.028,1.297,0.084c0.034,0.004,0.068,0.006,0.102,0.006c0.39,0,0.729-0.289,0.779-0.686   c0.056-0.431-0.248-0.825-0.679-0.881c-0.498-0.064-1.002-0.097-1.499-0.097c-0.435,0-0.787,0.353-0.787,0.787   C956.931,573.149,957.283,573.501,957.717,573.501z"></path><path d="M961.691,574.312c2.605,1.101,4.674,3.217,5.676,5.807c0.12,0.312,0.418,0.503,0.733,0.503c0.095,0,0.19-0.017,0.283-0.053   c0.405-0.157,0.606-0.612,0.45-1.018c-1.154-2.985-3.535-5.423-6.531-6.689c-0.4-0.169-0.861,0.019-1.03,0.418   C961.104,573.681,961.291,574.143,961.691,574.312z"></path><path d="M984.104,606.908h-3.218c-2.266,0-4.108-1.844-4.108-4.109c0-1.097,0.428-2.128,1.205-2.905   c0.774-0.776,1.806-1.204,2.903-1.204c0.435,0,0.787-0.353,0.787-0.787c0-0.435-0.353-0.787-0.787-0.787   c-1.52,0-2.945,0.592-4.017,1.665c-1.074,1.074-1.665,2.5-1.665,4.017c0,3.133,2.549,5.683,5.682,5.683h3.218   c7.896,0,14.319,6.424,14.319,14.319v0.562c0,3.825-1.488,7.421-4.191,10.125c-2.708,2.705-6.305,4.194-10.128,4.194   c-6.46,0-12.116-4.37-13.806-10.52h4.417c0.435,0,0.786-0.353,0.786-0.786v-7.766c0-0.435-0.352-0.787-0.786-0.787h-2.141v-34.571   c0-8.011-6.311-14.577-14.222-14.987v-7.2c0-0.435-0.353-0.787-0.787-0.787c-0.435,0-0.787,0.352-0.787,0.787v7.2   c-7.911,0.41-14.221,6.976-14.221,14.987v34.571h-2.141c-0.435,0-0.787,0.353-0.787,0.787v7.765c0,0.435,0.352,0.787,0.787,0.787   h4.587c-0.387,6.121-5.487,10.983-11.704,10.983c-3.135,0-6.08-1.221-8.294-3.438c-2.216-2.214-3.437-5.159-3.437-8.294v-0.463   c0-6.469,5.262-11.73,11.73-11.73h2.666c2.67,0,4.843-2.173,4.843-4.844c0-1.292-0.504-2.508-1.419-3.423   c-0.916-0.916-2.131-1.42-3.424-1.42c-0.434,0-0.787,0.353-0.787,0.787c0,0.434,0.353,0.786,0.787,0.786   c0.873,0,1.693,0.341,2.311,0.959c0.619,0.618,0.959,1.439,0.959,2.311c0,1.804-1.467,3.271-3.27,3.271h-2.666   c-7.335,0-13.304,5.968-13.304,13.304v0.463c0,3.556,1.384,6.896,3.897,9.406c2.511,2.514,5.852,3.897,9.407,3.897   c2.762,0,5.33-0.847,7.459-2.293c0.069-0.025,0.442-0.284,0.88-0.564c1.416-0.904,4.952-2.924,9.843-4.055   c8.05-1.861,15.986-0.615,23.611,3.704c0.479,0.271,1.607,0.935,1.7,0.952c2.205,1.147,4.698,1.792,7.311,1.792   c4.243,0,8.234-1.652,11.239-4.655c3.001-3.001,4.653-6.991,4.653-11.237v-0.561C999.997,614.037,992.868,606.908,984.104,606.908z    M944.132,583.252c0-7.408,6.027-13.435,13.435-13.435c7.408,0,13.435,6.027,13.435,13.435v34.571h-5.635l-0.954-7.785v-14.81   c2.341-0.251,4.171-2.239,4.171-4.647v-4.274c0-0.378-0.27-0.703-0.641-0.773c-0.371-0.07-0.74,0.133-0.879,0.485   c-0.316,0.807-1.431,2.922-2.651,2.967v-6.453c0-3.044-2.477-5.521-5.521-5.521h-5.406c-3.044,0-5.521,2.477-5.521,5.521v0.962   c-1.452,1.132-2.357,2.713-2.357,4.462c0,1.748,0.905,3.33,2.357,4.462v4.908h-0.664c-0.434,0-0.786,0.353-0.786,0.787   c0,0.435,0.352,0.787,0.786,0.787h1.45h0.606v1.783c0,0.435,0.353,0.787,0.787,0.787c0.435,0,0.787-0.353,0.787-0.787v-1.783h1.11   c0.189,0,0.376,0.013,0.562,0.033v1.751c0,0.434,0.353,0.786,0.787,0.786c0.435,0,0.787-0.353,0.787-0.786v-1.333   c1.02,0.445,1.897,1.201,2.479,2.183c0.237,0.4,0.239,0.865,0.005,1.274c-0.237,0.415-0.661,0.662-1.136,0.662h-4.668   c-0.434,0-0.786,0.341-0.786,0.775s0.352,0.787,0.786,0.787h0.069l-1.921,12.79h-4.872L944.132,583.252L944.132,583.252z    M959.417,613.806c-0.435,0-0.787,0.353-0.787,0.787v3.23h-2.908v-5.085c0-0.435-0.353-0.786-0.787-0.786   c-0.435,0-0.787,0.352-0.787,0.786v5.085h-3.554l1.458-9.707h2.728c0.435,0,0.787-0.353,0.787-0.786   c0-0.435-0.352-0.787-0.787-0.787h-2.491l0.225-1.498h3.01c1.047,0,1.982-0.545,2.503-1.456c0.513-0.9,0.506-1.968-0.018-2.854   c-1.243-2.101-3.53-3.406-5.968-3.406h-2.503v-3.959c1.133,0.519,2.443,0.817,3.839,0.817c4.285,0,7.77-2.794,7.77-6.228   s-3.485-6.228-7.77-6.228c-1.396,0-2.706,0.298-3.839,0.817v-0.013c0-2.177,1.771-3.948,3.948-3.948h5.406   c2.176,0,3.948,1.771,3.948,3.948v25.091h-2.805c-0.435,0-0.787,0.353-0.787,0.786c0,0.435,0.352,0.787,0.787,0.787h2.805v0.888   c0,0.032,0.942,7.737,0.942,7.737h-3.579v-3.23C960.204,614.158,959.852,613.806,959.417,613.806z M953.378,583.303   c3.417,0,6.197,2.088,6.197,4.655c0,2.567-2.78,4.655-6.197,4.655c-3.417,0-6.196-2.088-6.196-4.655   C947.182,585.391,949.961,583.303,953.378,583.303z M964.413,590.564c1.011-0.012,1.893-0.625,2.598-1.429v1.445   c0,1.539-1.127,2.816-2.598,3.057V590.564z M941.205,619.396h32.725v6.192h-32.725V619.396z M951.06,631.289   c-2.572,0.6-4.768,1.423-6.51,2.216c1.174-1.856,1.904-4.021,2.033-6.343h22.088c0.533,2.171,1.511,4.149,2.819,5.852   C963.319,629.668,956.073,630.119,951.06,631.289z"></path></g></svg>