<svg xmlns="http://www.w3.org/2000/svg" xmlns:xlink="http://www.w3.org/1999/xlink" version="1.1" x="0px" y="0px" viewBox="0 0 100 100" enable-background="new 0 0 100 100" xml:space="preserve"><g><path d="M23.039,43.879h3.336v3.301c0,0.906,0.741,1.641,1.656,1.641c0.915,0,1.657-0.734,1.657-1.641v-3.301h3.336   c0.914,0,1.656-0.734,1.656-1.641c0-0.906-0.742-1.64-1.656-1.64h-3.336v-3.302c0-0.906-0.742-1.641-1.657-1.641   c-0.915,0-1.656,0.735-1.656,1.641v3.302h-3.336c-0.915,0-1.657,0.734-1.657,1.64C21.381,43.145,22.124,43.879,23.039,43.879z"></path><path d="M81.118,33.865c-0.292-0.225-0.649-0.347-1.019-0.347H73.96v-2.397c0-2.773-2.279-5.029-5.081-5.029   s-5.081,2.256-5.081,5.029v2.397H59.91v-5.74c0-0.906-0.741-1.64-1.656-1.64H18.808c-3.071,0-5.568,2.473-5.568,5.511v10.673v8.708   v17.556c0,3.038,2.498,5.512,5.568,5.512h2.028c0.764,3.557,3.962,6.236,7.781,6.236s7.017-2.679,7.782-6.236h20.96   c0.765,3.557,3.962,6.236,7.782,6.236c3.819,0,7.016-2.679,7.78-6.236h8.271c3.072,0,5.57-2.474,5.57-5.512V42.901   C86.761,38.347,81.695,34.31,81.118,33.865z M83.447,42.901v5.522h-3.313v-5.522c0-2.305-1.458-4.463-3.003-6.102h2.374   C80.86,37.964,83.447,40.65,83.447,42.901z M67.113,31.121c0-0.964,0.792-1.75,1.767-1.75s1.767,0.785,1.767,1.75v2.397h-0.225   h-3.309V31.121z M70.421,36.799h1.723c1.547,1.13,4.675,3.871,4.675,6.102v5.522H59.91V36.799H70.421z M16.553,31.649   c0-1.23,1.011-2.231,2.254-2.231h37.789V51.03c0,1.23-1.01,2.232-2.253,2.232H18.808c-1.243,0-2.254-1.002-2.254-2.232v-8.708   V31.649z M28.617,77.053c-2.56,0-4.644-2.062-4.644-4.596s2.084-4.598,4.644-4.598c2.561,0,4.644,2.063,4.644,4.598   S31.178,77.053,28.617,77.053z M65.141,77.053c-2.561,0-4.645-2.062-4.645-4.596s2.083-4.598,4.645-4.598   c2.561,0,4.643,2.063,4.643,4.598S67.701,77.053,65.141,77.053z M65.141,64.581c-3.82,0-7.017,2.678-7.782,6.237h-20.96   c-0.765-3.56-3.962-6.237-7.782-6.237s-7.017,2.678-7.781,6.237h-2.028c-1.243,0-2.254-1.001-2.254-2.231V56.066   c0.689,0.303,1.452,0.475,2.254,0.475h35.535c2.84,0,5.185-2.116,5.522-4.838h16.955v19.115h-3.898   C72.157,67.258,68.959,64.581,65.141,64.581z M81.191,70.818h-1.058V51.703h3.313v16.884   C83.447,69.817,82.436,70.818,81.191,70.818z"></path><path d="M68.64,53.262h-4.971c-0.915,0-1.657,0.734-1.657,1.64s0.742,1.639,1.657,1.639h4.971c0.915,0,1.657-0.734,1.657-1.639   S69.555,53.262,68.64,53.262z"></path><path d="M68.879,24.879c0.915,0,1.656-0.735,1.656-1.641v-1.931c0-0.906-0.741-1.641-1.656-1.641c-0.915,0-1.657,0.735-1.657,1.641   v1.931C67.223,24.144,67.965,24.879,68.879,24.879z"></path><path d="M62.207,26.748c0.323,0.321,0.748,0.481,1.172,0.481s0.848-0.161,1.172-0.48c0.646-0.64,0.646-1.678,0-2.318l-1.38-1.366   c-0.647-0.642-1.696-0.642-2.343-0.001c-0.648,0.64-0.648,1.678,0,2.319L62.207,26.748z"></path><path d="M74.381,27.229c0.424,0,0.848-0.161,1.172-0.48l1.379-1.366c0.648-0.641,0.648-1.679,0-2.32   c-0.646-0.641-1.696-0.641-2.342,0l-1.38,1.367c-0.647,0.64-0.647,1.678,0,2.318C73.533,27.069,73.957,27.229,74.381,27.229z"></path><path d="M42.837,51.252h8.182c1.828,0,3.314-1.471,3.314-3.279V34.708c0-1.809-1.486-3.281-3.314-3.281h-8.182   c-1.828,0-3.314,1.472-3.314,3.281v13.266C39.523,49.782,41.01,51.252,42.837,51.252z M42.837,34.708h8.182l0.002,13.266h-8.184   V34.708z"></path></g></svg>