<svg xmlns:xlink="http://www.w3.org/1999/xlink" xmlns="http://www.w3.org/2000/svg" stroke-width="0.501" stroke-linejoin="bevel" fill-rule="evenodd" version="1.1" overflow="visible" viewBox="0 0 75 75" x="0px" y="0px"><g fill="none" stroke="black" font-family="Times New Roman" font-size="16" transform="scale(1 -1)"><g transform="translate(0 -75)"><g><path d="M 11.89,34.986 C 13.216,39.776 17.268,52.715 19.907,57.843 L 20.25,58.46 L 20.196,58.694 C 19.923,60.292 19.926,63.253 20.307,65.896 C 20.691,68.543 21.649,72.295 24.222,72.199 C 26.341,72.12 28.519,69.58 29.712,67.775 L 30.216,66.955 L 30.712,67.071 C 33.166,67.652 34.596,67.925 37.676,67.925 C 38.129,67.925 38.498,67.556 38.498,67.103 C 38.498,66.649 38.129,66.281 37.676,66.281 C 34.355,66.281 33.141,65.961 29.973,65.206 C 29.585,65.114 29.186,65.313 29.027,65.678 C 28.443,67.02 25.848,70.492 24.16,70.555 C 23.341,70.585 22.413,68.96 21.936,65.66 C 21.509,62.708 21.611,59.56 21.907,58.567 C 21.973,58.345 21.943,58.106 21.822,57.907 C 19.376,53.868 14.91,39.733 13.476,34.547 C 10.012,22.023 12.844,7.447 27.86,6.541 C 28.313,6.513 28.658,6.123 28.631,5.67 C 28.603,5.217 28.214,4.871 27.76,4.898 C 11.317,5.892 8.223,21.722 11.89,34.986 Z" stroke-width="0.463" stroke="none" fill="#000000" fill-rule="evenodd" marker-start="none" marker-end="none" stroke-miterlimit="79.8403193612775"></path><path d="M 28.436,3.704 C 25.269,6.784 23.61,11.48 23.154,16.051 C 23.109,16.502 23.439,16.905 23.89,16.951 C 24.341,16.997 24.744,16.666 24.79,16.215 C 25.225,11.872 26.789,7.6 29.584,4.884 C 29.873,4.601 30.509,4.43 30.739,4.454 C 30.814,4.462 31.14,4.632 31.427,5.686 C 31.69,6.646 31.817,7.974 31.84,9.415 C 31.861,10.844 31.778,12.336 31.641,13.597 C 31.502,14.889 31.315,15.86 31.159,16.287 C 31.003,16.715 31.222,17.187 31.648,17.343 C 32.075,17.5 32.547,17.281 32.703,16.853 C 32.937,16.215 33.138,15.069 33.277,13.774 C 33.42,12.452 33.507,10.893 33.483,9.389 C 33.447,6.957 33.157,3.046 30.906,2.817 C 30.214,2.747 29.094,3.064 28.436,3.704 Z" stroke-width="0.463" stroke="none" fill="#000000" fill-rule="evenodd" marker-start="none" marker-end="none" stroke-miterlimit="79.8403193612775"></path><path d="M 36.275,4.553 C 34.717,4.577 33.131,4.649 32.156,4.709 C 31.704,4.737 31.357,5.127 31.385,5.581 C 31.413,6.033 31.804,6.378 32.257,6.351 C 33.21,6.292 34.772,6.222 36.3,6.197 C 37.066,6.185 37.817,6.184 38.479,6.201 C 39.147,6.22 39.697,6.256 40.066,6.313 C 40.514,6.38 40.934,6.07 41.002,5.622 C 41.069,5.173 40.76,4.754 40.311,4.685 C 39.838,4.614 39.205,4.576 38.523,4.558 C 37.83,4.539 37.054,4.54 36.275,4.553 Z" stroke-width="0.463" stroke="none" fill="#000000" fill-rule="evenodd" marker-start="none" marker-end="none" stroke-miterlimit="79.8403193612775"></path><path d="M 44.571,5.67 C 44.544,6.123 44.89,6.514 45.342,6.541 C 48.054,6.701 50.349,7.217 52.273,8.008 C 52.693,8.179 53.173,7.979 53.346,7.558 C 53.519,7.138 53.317,6.659 52.898,6.486 C 50.781,5.617 48.303,5.07 45.441,4.898 C 44.988,4.871 44.597,5.218 44.571,5.67 Z" stroke-width="0.463" stroke="none" fill="#000000" fill-rule="evenodd" marker-start="none" marker-end="none" stroke-miterlimit="79.8403193612775"></path><path d="M 61.043,22.181 C 61.118,25.253 60.634,31.262 59.725,34.547 C 58.28,39.771 54.043,53.863 51.596,57.907 C 51.476,58.106 51.445,58.344 51.511,58.567 C 51.801,59.546 51.854,62.691 51.375,65.646 C 50.84,68.937 49.874,70.586 49.039,70.555 C 47.363,70.492 44.763,67.033 44.175,65.678 C 44.016,65.313 43.617,65.114 43.229,65.206 C 40.061,65.961 38.847,66.281 35.527,66.281 C 35.073,66.281 34.705,66.649 34.705,67.103 C 34.705,67.556 35.073,67.925 35.527,67.925 C 38.605,67.925 40.035,67.652 42.489,67.071 L 42.983,66.955 L 43.491,67.778 C 44.685,69.585 46.865,72.12 48.977,72.199 C 51.533,72.294 52.563,68.591 52.999,65.91 C 53.427,63.271 53.482,60.307 53.22,58.699 L 53.167,58.46 L 53.509,57.839 C 56.128,52.701 59.988,39.767 61.31,34.986 C 62.276,31.496 62.765,25.316 62.687,22.141 C 62.675,21.687 62.298,21.328 61.845,21.339 C 61.39,21.351 61.032,21.728 61.043,22.181 Z" stroke-width="0.463" stroke="none" fill="#000000" fill-rule="evenodd" marker-start="none" marker-end="none" stroke-miterlimit="79.8403193612775"></path><path d="M 42.296,2.817 C 40.034,3.047 39.754,6.997 39.717,9.389 C 39.695,10.893 39.782,12.452 39.924,13.773 C 40.063,15.065 40.264,16.217 40.498,16.853 C 40.653,17.281 41.126,17.5 41.552,17.343 C 41.979,17.187 42.198,16.715 42.042,16.287 C 41.886,15.86 41.697,14.886 41.559,13.597 C 41.423,12.336 41.341,10.844 41.362,9.415 C 41.384,7.974 41.512,6.646 41.773,5.686 C 42.058,4.643 42.382,4.462 42.463,4.454 C 42.536,4.447 42.747,4.462 43.019,4.555 C 43.285,4.643 43.499,4.767 43.618,4.883 C 46.412,7.6 47.976,11.872 48.411,16.215 C 48.456,16.666 48.86,16.997 49.311,16.951 C 49.762,16.905 50.092,16.502 50.047,16.051 C 49.591,11.48 47.931,6.784 44.766,3.704 C 44.106,3.062 42.985,2.747 42.296,2.817 Z" stroke-width="0.463" stroke="none" fill="#000000" fill-rule="evenodd" marker-start="none" marker-end="none" stroke-miterlimit="79.8403193612775"></path><path d="M 53.352,5.413 C 50.748,6.624 50.289,9.969 53.712,12.717 C 55.356,14.038 56.31,14.316 57.879,15.648 L 58.554,16.257 L 58.646,16.392 C 58.932,16.841 59.586,17.965 59.835,18.435 L 59.921,18.608 C 60.083,19.04 60.557,19.253 60.981,19.095 C 61.407,18.935 61.623,18.461 61.463,18.035 L 61.449,17.995 L 61.434,17.958 C 61.257,17.547 60.125,15.6 59.842,15.23 L 59.815,15.196 L 59.785,15.161 L 59.724,15.097 C 57.589,13.075 56.419,12.782 54.741,11.434 C 53.357,10.323 52.914,9.288 52.908,8.558 C 52.903,7.861 53.295,7.253 54.046,6.904 C 55.561,6.199 58.73,6.597 61.793,10.604 C 63.984,13.47 65.223,19.761 61.362,22.117 C 60.974,22.353 60.851,22.859 61.088,23.246 C 61.324,23.634 61.83,23.757 62.218,23.521 C 67.321,20.408 65.605,12.88 63.1,9.603 C 59.789,5.273 55.85,4.25 53.352,5.413 Z" stroke-width="0.463" stroke="none" fill="#000000" fill-rule="evenodd" marker-start="none" marker-end="none" stroke-miterlimit="79.8403193612775"></path><path d="M 36.741,48.026 C 38.594,48.026 40.099,47.926 40.099,46.558 C 40.099,45.188 38.594,44.075 36.741,44.075 C 34.888,44.075 33.381,45.188 33.381,46.558 C 33.381,47.926 34.888,48.026 36.741,48.026 Z" stroke-linejoin="round" stroke-linecap="round" stroke="none" stroke-width="1.752" fill="#000000" marker-start="none" marker-end="none" stroke-miterlimit="79.8403193612775"></path><path d="M 23.373,53.093 C 23.373,55.978 25.716,58.321 28.601,58.321 C 31.486,58.321 33.83,55.978 33.83,53.093 C 33.83,50.208 31.486,47.863 28.601,47.863 C 25.716,47.863 23.373,50.208 23.373,53.093 Z M 31.026,50.874 C 31.026,51.438 30.568,51.896 30.003,51.896 C 29.438,51.896 28.979,51.438 28.979,50.874 C 28.979,50.309 29.438,49.85 30.003,49.85 C 30.568,49.85 31.026,50.309 31.026,50.874 Z M 29.04,54.961 C 29.04,55.913 28.267,56.684 27.316,56.684 C 26.365,56.684 25.592,55.913 25.592,54.961 C 25.592,54.009 26.365,53.237 27.316,53.237 C 28.267,53.237 29.04,54.009 29.04,54.961 Z" stroke-linejoin="round" stroke-linecap="round" stroke="none" stroke-width="0.732" fill="#000000" marker-start="none" marker-end="none" stroke-miterlimit="79.8403193612775"></path><path d="M 39.532,53.093 C 39.532,55.978 41.875,58.321 44.76,58.321 C 47.646,58.321 49.99,55.978 49.99,53.093 C 49.99,50.208 47.646,47.863 44.76,47.863 C 41.875,47.863 39.532,50.208 39.532,53.093 Z M 47.186,50.874 C 47.186,51.438 46.727,51.896 46.162,51.896 C 45.598,51.896 45.138,51.438 45.138,50.874 C 45.138,50.309 45.598,49.85 46.162,49.85 C 46.727,49.85 47.186,50.309 47.186,50.874 Z M 45.201,54.961 C 45.201,55.913 44.426,56.684 43.475,56.684 C 42.523,56.684 41.752,55.913 41.752,54.961 C 41.752,54.009 42.523,53.237 43.475,53.237 C 44.426,53.237 45.201,54.009 45.201,54.961 Z" stroke-linejoin="round" stroke-linecap="round" stroke="none" stroke-width="0.732" fill="#000000" marker-start="none" marker-end="none" stroke-miterlimit="79.8403193612775"></path><path d="M 26.705,43.548 C 26.53,43.795 26.589,44.137 26.836,44.312 C 28.065,45.179 29.47,45.911 30.974,46.263 C 31.268,46.331 31.563,46.148 31.632,45.853 C 31.701,45.559 31.518,45.264 31.223,45.194 C 29.895,44.885 28.619,44.229 27.468,43.415 C 27.222,43.241 26.879,43.301 26.705,43.548 Z" stroke-width="0.463" stroke="none" fill="#000000" fill-rule="evenodd" marker-start="none" marker-end="none" stroke-miterlimit="79.8403193612775"></path><path d="M 27.942,41.096 C 27.746,41.326 27.773,41.673 28.003,41.869 C 29.283,42.962 30.269,43.621 31.716,44.45 C 31.979,44.599 32.315,44.509 32.465,44.247 C 32.615,43.984 32.524,43.649 32.261,43.498 C 30.86,42.697 29.933,42.075 28.714,41.035 C 28.484,40.839 28.138,40.866 27.942,41.096 Z" stroke-width="0.463" stroke="none" fill="#000000" fill-rule="evenodd" marker-start="none" marker-end="none" stroke-miterlimit="79.8403193612775"></path><path d="M 46.387,43.415 C 45.236,44.229 43.96,44.885 42.631,45.194 C 42.336,45.264 42.153,45.559 42.222,45.853 C 42.291,46.148 42.586,46.331 42.881,46.263 C 44.385,45.911 45.79,45.179 47.02,44.312 C 47.266,44.137 47.326,43.795 47.151,43.548 C 46.976,43.301 46.634,43.241 46.387,43.415 Z" stroke-width="0.463" stroke="none" fill="#000000" fill-rule="evenodd" marker-start="none" marker-end="none" stroke-miterlimit="79.8403193612775"></path><path d="M 45.141,41.035 C 43.921,42.075 42.995,42.697 41.595,43.498 C 41.331,43.649 41.241,43.984 41.391,44.247 C 41.541,44.509 41.876,44.599 42.139,44.45 C 43.586,43.621 44.572,42.962 45.853,41.869 C 46.083,41.673 46.111,41.326 45.913,41.096 C 45.718,40.866 45.372,40.838 45.141,41.035 Z" stroke-width="0.463" stroke="none" fill="#000000" fill-rule="evenodd" marker-start="none" marker-end="none" stroke-miterlimit="79.8403193612775"></path><path d="M 40.507,59.305 C 40.137,60.002 39.849,60.816 39.737,61.626 C 39.695,61.926 39.903,62.202 40.204,62.245 C 40.504,62.286 40.78,62.077 40.822,61.777 C 40.914,61.111 41.156,60.422 41.475,59.822 C 41.617,59.554 41.516,59.222 41.249,59.08 C 40.982,58.937 40.65,59.038 40.507,59.305 Z" stroke-width="0.463" stroke="none" fill="#000000" fill-rule="evenodd" marker-start="none" marker-end="none" stroke-miterlimit="79.8403193612775"></path><path d="M 41.928,59.756 C 41.572,60.458 41.316,61.198 41.123,61.882 C 41.04,62.172 41.21,62.476 41.502,62.558 C 41.792,62.64 42.095,62.47 42.179,62.179 C 42.358,61.537 42.593,60.869 42.905,60.25 C 43.042,59.98 42.934,59.65 42.664,59.514 C 42.393,59.377 42.063,59.485 41.928,59.756 Z" stroke-width="0.463" stroke="none" fill="#000000" fill-rule="evenodd" marker-start="none" marker-end="none" stroke-miterlimit="79.8403193612775"></path><path d="M 32.043,59.08 C 31.776,59.222 31.675,59.554 31.816,59.822 C 32.136,60.421 32.377,61.111 32.471,61.779 C 32.512,62.078 32.79,62.287 33.09,62.245 C 33.389,62.202 33.599,61.925 33.556,61.626 C 33.442,60.816 33.157,60.003 32.784,59.305 C 32.643,59.038 32.31,58.937 32.043,59.08 Z" stroke-width="0.463" stroke="none" fill="#000000" fill-rule="evenodd" marker-start="none" marker-end="none" stroke-miterlimit="79.8403193612775"></path><path d="M 30.628,59.514 C 30.357,59.651 30.249,59.981 30.386,60.25 C 30.7,60.869 30.933,61.537 31.116,62.181 C 31.198,62.471 31.501,62.64 31.793,62.557 C 32.084,62.475 32.253,62.172 32.17,61.88 C 31.975,61.198 31.72,60.458 31.364,59.756 C 31.227,59.485 30.897,59.377 30.628,59.514 Z" stroke-width="0.463" stroke="none" fill="#000000" fill-rule="evenodd" marker-start="none" marker-end="none" stroke-miterlimit="79.8403193612775"></path><path d="M 15.473,43.467 C 15.9,44.557 16.284,45.621 16.569,46.634 C 19.218,44.199 21.865,42.811 21.506,41.158 C 20.803,39.628 17.803,41.444 15.473,43.467 Z" stroke-linejoin="round" stroke-linecap="round" stroke="none" stroke-width="0.549" fill="#000000" marker-start="none" marker-end="none" stroke-miterlimit="79.8403193612775"></path><path d="M 13.211,37.883 C 13.559,38.799 13.939,39.727 14.322,40.646 C 16.757,38.379 19.235,37.106 18.903,35.586 C 18.244,34.15 15.346,35.975 13.211,37.883 Z" stroke-linejoin="round" stroke-linecap="round" stroke="none" stroke-width="0.549" fill="#000000" marker-start="none" marker-end="none" stroke-miterlimit="79.8403193612775"></path><path d="M 11.674,31.89 C 11.726,32.81 11.909,33.78 12.18,34.787 C 14.365,32.743 16.598,31.601 16.302,30.237 C 15.759,29.055 13.516,30.347 11.674,31.89 Z" stroke-linejoin="round" stroke-linecap="round" stroke="none" stroke-width="0.549" fill="#000000" marker-start="none" marker-end="none" stroke-miterlimit="79.8403193612775"></path><path d="M 57.564,43.467 C 57.136,44.557 56.754,45.621 56.469,46.634 C 53.818,44.199 51.172,42.811 51.533,41.158 C 52.235,39.628 55.233,41.444 57.564,43.467 Z" stroke-linejoin="round" stroke-linecap="round" stroke="none" stroke-width="0.549" fill="#000000" marker-start="none" marker-end="none" stroke-miterlimit="79.8403193612775"></path><path d="M 59.825,37.883 C 59.476,38.799 59.096,39.727 58.715,40.646 C 56.28,38.379 53.802,37.106 54.133,35.586 C 54.793,34.15 57.69,35.975 59.825,37.883 Z" stroke-linejoin="round" stroke-linecap="round" stroke="none" stroke-width="0.549" fill="#000000" marker-start="none" marker-end="none" stroke-miterlimit="79.8403193612775"></path><path d="M 61.363,31.89 C 61.311,32.81 61.127,33.78 60.857,34.787 C 58.672,32.743 56.439,31.601 56.736,30.237 C 57.279,29.055 59.52,30.347 61.363,31.89 Z" stroke-linejoin="round" stroke-linecap="round" stroke="none" stroke-width="0.549" fill="#000000" marker-start="none" marker-end="none" stroke-miterlimit="79.8403193612775"></path></g></g></g></svg>