<svg xmlns="http://www.w3.org/2000/svg" xmlns:xlink="http://www.w3.org/1999/xlink" version="1.1" x="0px" y="0px" viewBox="0 0 100 100" enable-background="new 0 0 100 100" xml:space="preserve"><path fill-rule="evenodd" clip-rule="evenodd" d="M85.302,28.794c-0.662-0.363-0.781-0.852-0.763-1.508  c0.011-0.389-0.042-0.793-0.138-1.172c-0.236-0.929-1.172-1.381-1.955-0.909c-0.308,0.186-0.495,0.571-0.736,0.867  c-0.983-0.637-1.603-0.61-2.581,0.203c-0.167-0.362-0.456-0.699-0.456-1.035c0.002-0.523,0.22-1.041,0.316-1.566  c0.323-1.762-0.825-3.437-2.618-3.63c-1.511-0.165-3.046-0.246-4.566-0.19c-2.056,0.076-4.038-0.146-5.945-0.917  c-0.177-0.071-0.415-0.334-0.396-0.489c0.225-2.062,0.438-4.151,0.586-6.244c0.021-0.178,0.161-0.356,0.273-0.513  c1.29-1.763,0.784-3.978-1.24-4.776C63.92,6.458,62.688,6.144,61.453,5.9c-0.938-0.209-1.887-0.363-2.842-0.471  c-1.114-0.154-2.233-0.27-3.35-0.305c-2.462-0.077-4.933,0.042-7.399,0.125C44.35,5.367,40.957,6.085,37.76,7.555  c-1.7,0.781-3.389,1.618-4.97,2.611c-1.828,1.148-3.216,2.75-3.886,4.862c-0.27,0.85-0.761,1.43-1.623,1.735  c-1.009,0.357-1.819,0.954-2.533,2.189c-0.109,0.19-0.216,0.387-0.332,0.576c-2.448,3.976-3.974,8.306-4.845,12.863  c-0.447,2.34-0.772,4.712-1.004,7.083c-0.319,3.251-0.643,6.514-0.699,9.775c-0.081,4.755,0.063,9.512,0.129,14.268  c0.028,1.895,0.088,3.792,0.167,5.687c0.06,1.476,0.168,2.949,0.258,4.424c0.092,1.521,0.135,3.048,0.297,4.562  c0.141,1.313,0.301,2.646,0.677,3.904c0.225,0.748,0.743,1.562,1.371,2.006c1.41,0.997,3.122,1.061,4.811,1.099  c3.571,0.082,7.142,0.2,10.731,0.305c0.004,0.009,0.044,0.051,0.044,0.094c0.003,0.739,0.002,1.479,0.003,2.219  c0.002,1.358,0.416,1.994,1.7,2.325c0.898,0.229,1.836,0.304,2.756,0.449c1.975,0.312,3.938,0.145,5.858-0.314  c1.652-0.396,2.152-0.884,1.716-3.074c-0.128-0.644-0.241-2.145-0.309-2.802c0.091-0.127,0.518,1.338,0.591,1.613  c0.582,2.187,1.137,4.381,1.744,6.562c0.321,1.161,1.112,1.941,2.299,2.164c3.159,0.591,6.285,0.332,9.364-0.517  c0.394-0.109,0.774-0.434,1.054-0.751c0.537-0.606,0.438-1.318,0.149-2.018c-0.864-2.102-0.929-4.347-1.24-6.594  c0.557-0.079,1.068-0.136,1.575-0.228c2.072-0.373,2.693-1.389,2.168-3.423c-0.22-0.854-0.451-1.728-0.485-2.602  c-0.067-1.719-0.025-3.443,0.022-5.164c0.037-1.37,0.151-3.105,0.229-4.475c0.073-0.025,1.508,2.035,1.989,2.989  c1.65,3.283,2.018,6.929,2.767,10.457c0.321,1.508,0.321,3.083,0.475,4.626c0.136,1.338,0.699,2.174,1.644,2.359  c0.821,0.161,1.648,0.3,2.48,0.374c1.935,0.174,3.849,0.133,5.674-0.671c1.302-0.574,1.666-1.137,1.4-2.542  c-0.158-0.837-0.484-1.646-0.755-2.461c-0.305-0.933-0.772-1.836-0.924-2.791c-0.387-2.444-0.625-4.912-0.941-7.368  c-0.495-3.827-1.841-7.364-3.94-10.574c-2.783-4.26-6.359-7.758-10.625-10.565c-2.787-1.832-5.438-3.837-7.362-6.647  c-0.771-1.123-1.398-2.286-1.696-3.631c0.25,0.138,0.439,0.324,0.644,0.491c1.779,1.445,3.547,2.907,5.351,4.321  c0.752,0.588,1.336,0.458,1.882-0.332c2.239-3.217,2.959-6.811,2.632-10.662c-0.071-0.842-0.131-1.685-0.2-2.576  c0.381,0,0.651-0.011,0.92,0.002c4.259,0.199,8.488-0.057,12.676-0.88c1.737-0.34,3.471-0.733,5.194-1.148  c0.64-0.155,1.077-0.615,1.188-1.284C86.132,29.766,85.891,29.117,85.302,28.794z M82.721,26.282  c0.051-0.165,0.238-0.35,0.466-0.368c0.179-0.014,0.348,0.23,0.366,0.378c0.073,0.583,0.138,1.346,0.129,1.931  c-0.202-0.009-0.534-0.014-0.684-0.009c-0.327,0.009-0.396-0.011-0.774,0.026C82.394,27.543,82.523,26.902,82.721,26.282z   M80.55,26.586c0.442,0.023,0.738,0.704,0.688,1.721c-0.617,0.066-1.197,0.129-1.779,0.191  C79.388,27.418,79.896,26.553,80.55,26.586z M78.384,28.728c-0.786,0.174-1.563,0.344-2.464,0.543  c0.087-0.775,0.401-1.212,1.02-1.385C77.584,27.706,78.106,28.019,78.384,28.728z M75.823,21.149  c0.351-0.049,0.66,0.247,0.786,0.562c0.145,0.283,0.105,0.908-0.82,1.003c-0.626-0.038-0.848-0.567-0.839-0.867  C75.134,21.298,75.443,21.203,75.823,21.149z M67.147,20.811c-0.374,0.51-0.816,0.996-1.123,1.556  c-0.713,1.306-0.154,3.021,1.148,3.725c1.822,0.984,3.757,1.02,5.732,0.672c1.114-0.196,2.219-0.427,3.335-0.59  c0.67-0.097,1.007,0.365,1.142,0.625c-0.898-0.135-1.659,0.231-2.188,1.148c-0.044-0.037-0.182-0.159-0.323-0.274  c-0.725-0.589-1.708-0.626-2.343,0.062c-0.479,0.517-0.896,0.566-1.524,0.369c-0.395-0.124-0.862,0.007-1.298-0.008  c-0.257-0.01-0.577,0.002-0.756-0.14c-1.189-0.947-2.476-1.188-3.872-0.56c-0.451,0.202-0.844,0.53-1.336,0.847  c-1.181-1.09-2.492-0.856-3.838-0.158c-0.194,0.102-0.451,0.198-0.653,0.158c-1.533-0.299-2.512,0.283-2.978,1.877  c-1.3-0.136-2.62-0.254-3.931-0.431c-0.188-0.025-0.44-0.318-0.486-0.525c-0.625-2.775-1.268-5.656-2.09-8.275  c0.539,0.179,1.465,0.282,2.123,0.282c2.297-0.001,3.888-0.993,4.708-3.088c0.486-1.244,0.757-2.571,1.123-3.856  C60.016,17.5,63.122,19.817,67.147,20.811z M75.078,29.541c-0.458,0.128-0.786,0.207-1.104,0.315  c-0.479,0.165-0.873-0.012-1.021-0.431c-0.087-0.252,0.039-0.709,0.19-0.866c0.473-0.481,0.89-0.19,1.199-0.007  C74.593,28.744,74.806,28.946,75.078,29.541z M72.383,30.15c-0.521,0.115-0.926,0.135-1.368,0.137  c-0.434,0.024-1.022-0.764-0.805-1.125c0.096-0.16,0.492-0.235,0.646-0.232C71.321,28.936,72.019,29.139,72.383,30.15z   M69.346,30.343c-1.678,0-3.269,0-4.855,0c-0.188-1.277,0.207-1.872,1.453-2.22C67.306,27.744,68.57,28.536,69.346,30.343z   M63.303,30.341c-0.979,0-1.974,0-3.039,0c-0.044-0.797,0.073-1.431,0.683-1.787c0.64-0.373,1.325-0.334,1.949,0.104  C63.507,29.091,63.608,29.668,63.303,30.341z M59.134,30.215c-0.548,0-1.099,0-1.696,0c-0.01-0.762,0.444-1.206,1.123-1.152  C59.333,29.124,59.285,29.625,59.134,30.215z M52.092,37.851c-0.007-0.246,0-0.49,0-0.77c0.686,0.075,1.063,0.402,1.068,1.083  c0.009,1.181,0.073,2.366-0.005,3.541c-0.305,4.51-0.452,8.991,0.743,13.43c0.772,2.867,1.384,5.782,1.969,8.695  c0.516,2.563,0.642,5.164,0.316,7.726c-1.467-1.269-2.882-2.523-4.338-3.733c-0.455-0.381-0.646-0.761-0.652-1.367  c-0.023-2.481,0.031-4.962-0.72-7.391c-0.807-2.596-3.354-4.455-6.067-4.195c-1.557,0.151-2.824,0.33-4.651,1.074  c-1.411-2.993-1.864-7.039-2.292-10.638c0.25,0.187,0.389,0.311,0.461,0.383c2.159,2.162,4.317,4.324,6.47,6.494  c0.587,0.591,1.052,0.683,1.785,0.276c1.716-0.95,2.854-2.454,3.614-4.182c0.725-1.64,1.256-3.368,1.786-5.084  C52.115,41.458,52.148,39.653,52.092,37.851z M52.262,33.292c1.246,0,2.496,0,3.956,0C54.787,34.643,52.922,34.586,52.262,33.292z   M48.153,65.503c-1.114-0.942-2.17-1.77-3.147-2.68c-0.988-0.919-1.896-1.925-2.848-2.885c-0.303-0.305-0.361-0.596,0.018-0.851  c1.112-0.74,2.286-1.243,3.676-0.925c0.782,0.18,1.35,0.628,1.66,1.337C48.323,61.369,48.449,63.324,48.153,65.503z M49.185,17.28  c-0.667-0.409-1.006-1.118-0.915-1.944c0.55-0.13,0.855-0.021,1.091,0.501c0.334,0.749,0.992,1.141,1.847,1.095  c0.973-0.053,1.621-0.563,1.965-1.402c0.096-0.232,0.346-0.433,0.635-0.543c0.314-0.12,0.658-0.188,0.99-0.284  c0.301-0.085,0.601-0.184,0.919-0.282c-0.366,2.828-1.909,3.962-4.293,3.604C50.652,17.921,49.907,17.731,49.185,17.28z   M60.211,15.026c-0.72-0.202-1.022-0.722-1.307-1.295c-0.041-0.08-0.058-0.233,0.112-0.356c0.177-0.06,0.296,0.104,0.405,0.2  c0.828,0.734,1.823,0.776,2.483,0.009c0.266-0.31,0.366-0.763,0.596-1.269c0.518-0.04,1.167-0.089,1.996-0.153  c-0.181,0.496-0.254,0.858-0.431,1.158C63.45,14.353,61.853,15.49,60.211,15.026z M63.816,16.32c0,0.509-0.06,1.07-0.133,1.671  c-0.486-0.237-0.919-0.496-1.392-0.863C62.812,16.985,63.42,16.656,63.816,16.32z M30.842,15.945  c0.473-1.727,1.43-3.208,2.918-4.138c1.747-1.091,3.652-1.939,5.513-2.836c2.58-1.243,5.358-1.949,8.17-2.183  c2.7-0.225,5.428-0.268,8.142-0.19c-1.171,1.889-2.599,3.232-4.997,2.923c-0.146-0.018-0.362-0.03-0.486-0.007  c-0.241,0.042-0.442,0.029-0.406,0.443c0.041,0.183,0.305,0.267,0.486,0.292c2.189,0.308,3.916-0.626,5.497-2.014  c0.981-0.864,2.045-1.61,3.428-1.374c-1.107,1.813-2.438,3.35-4.818,3.536c-0.422,0.089,0.011,0.417,0.419,0.374  c1.417-0.146,2.744-0.526,3.736-1.699c1.211-1.433,1.696-2.085,3.317-1.748V7.324c0.686,0.148,1.37,0.305,2.052,0.458  c0.735,0.162,1.334,0.502,1.632,1.258c0.293,0.742,0.116,1.175-0.672,1.258c-1.153,0.123-2.336,0.043-3.461,0.265  c-1.222,0.239-2.453,0.599-3.571,1.132c-2.446,1.167-4.94,1.988-7.688,1.798c-0.271-0.019-0.543-0.029-0.81-0.068  c-1.201-0.175-1.458-0.527-1.265-1.78c0.169-1.109,0.364-2.213,0.571-3.445c-0.401,0.029-0.663,0.077-1.171,0.326  c-1.208,0.733-2.014,1.905-2.075,3.389c-0.19,4.663,0.641,9.154,2.318,13.506c1.311,3.396,2.111,6.875,2.109,10.565  c0,3.303-0.287,6.535-1.366,9.651c-0.457,1.314-1.134,2.564-1.827,3.78c-0.595,1.044-0.921,0.926-1.717,0.065  c-1.52-1.644-3.159-3.178-4.738-4.769c-3.069-3.09-5.784-6.43-6.918-10.74c-0.609-2.315-0.399-4.553,1.091-6.599  c1.287-1.769,2.559-3.57,3.622-5.478c1.383-2.481,1.953-5.236,2.217-8.062c0.102-1.093,0.424-2.165,0.621-3.251  c0.042-0.233,0.119-0.583-0.064-0.717c-0.273-0.11-0.534,0.096-0.695,0.238c-0.406,0.359-0.802,0.979-0.975,1.543  c-0.526,1.709-0.97,3.446-1.393,5.185c-0.355,1.465-0.822,2.875-1.764,4.415c-1.704-1.598-3.325-3.104-4.917-4.638  C30.782,16.489,30.785,16.151,30.842,15.945z M43.835,88.348c-0.958,0.002-1.922-0.021-2.877-0.114  c-1.257-0.124-1.721-0.639-1.67-1.873c0.135-3.215,0.3-6.43,0.48-9.644c0.033-0.581,0.196-1.155,0.341-1.97  c1.686,1.422,3.24,2.699,4.747,4.031c0.258,0.229,0.427,0.68,0.444,1.035c0.104,2.284,0.162,4.57,0.225,6.856  C45.566,88.149,45.383,88.345,43.835,88.348z M59.979,92.032c-1.763,0.514-3.558,0.538-5.341,0.205  c-0.915-0.169-1.4-0.869-1.674-1.784c-0.791-2.638-1.625-5.263-2.487-7.878c-1.174-3.565-3.565-6.22-6.552-8.357  c-2.304-1.65-4.745-3.108-7.045-4.763c-3.454-2.481-6.271-5.552-8.202-9.373c-1.088-2.151-2.252-4.266-3.197-6.489  c-0.325-0.765-0.54-1.737-0.857-2.59c-0.095-0.254-0.218-0.684-0.581-0.653c-0.46,0.021-0.446,0.58-0.397,0.815  c0.307,1.539,0.576,3.101,1.072,4.583c1.096,3.273,2.48,6.43,4.348,9.349c0.286,0.445-0.039,0.617-0.226,0.874  c-1.216,1.671-2.535,3.276-3.617,5.031c-0.709,1.149-1.33,2.426-1.329,3.863c0,0.258,0.025,0.515,0.158,0.85  c2.236-2.872,4.982-5.156,7.775-7.432c0.897,0.85,1.743,1.705,2.647,2.491c0.705,0.613,1.501,1.119,2.214,1.725  c0.224,0.19,0.449,0.557,0.429,0.824c-0.228,3.018-0.503,6.029-0.773,9.138c-0.931,0-1.837,0.034-2.742-0.006  c-3.056-0.134-6.111-0.289-9.165-0.442c-1.233-0.063-1.974-0.79-2.244-1.915c-0.327-1.356-0.589-2.734-0.753-4.12  c-0.253-2.144-0.416-4.298-0.588-6.45c-0.177-2.208-0.347-4.418-0.465-6.63c-0.172-3.197-0.454-6.399-0.399-9.595  c0.063-3.635,0.337-7.276,0.722-10.893c0.338-3.176,0.823-6.352,1.491-9.474c0.727-3.393,1.77-6.716,3.325-9.846  c0.395-0.794,0.735-1.648,1.291-2.318c0.532-0.641,1.132-1.418,1.994-1.587c0.104-0.019,0.374,0.04,0.487,0.151  c1.499,1.449,2.984,2.915,4.498,4.398c-0.424,0.543-0.88,1.22-1.429,1.812c-1.873,2.027-2.167,4.461-1.858,7.042  c0.353,2.951,1.368,5.669,3.299,7.938c1.236,1.452,1.721,2.929,1.563,4.864c-0.222,2.764-0.09,5.554,0.625,8.284  c1.128,4.299,3.57,7.678,7.074,10.352c2.763,2.108,5.551,4.187,8.247,6.378c1.157,0.94,2.182,2.073,3.136,3.227  c2.625,3.183,4.272,6.832,4.914,10.913c0.269,1.702,0.471,3.411,0.734,5.112c0.07,0.457,0.254,0.896,0.39,1.343  C60.646,91.507,60.521,91.875,59.979,92.032z M62.147,82.261c-0.225-0.03-0.52-0.314-0.594-0.544  c-0.334-1.053-0.261-0.975-0.565-2.036c-0.088-0.305-0.386-1.463-0.692-2.038c-0.704-1.31-0.862-2.197-0.821-3.428  c0.062-1.747,0.053-3.496,0.058-5.244c0.01-3.756-0.851-7.356-1.987-10.906c-0.009-0.022-0.019-0.047-0.025-0.07  c-0.373-1.28,0.092-1.797,1.438-1.56c1.518,0.268,2.634,1.013,3.11,2.572c0.61,2.001,1.378,3.966,1.043,6.76  c-0.107,2.924-0.24,6.487-0.373,10.052c-0.064,1.729,0.014,3.436,0.541,5.109C63.571,81.856,63.108,82.388,62.147,82.261z   M56.931,49.348c1.733,1.929,3.956,3.243,6.006,4.775c3.321,2.478,6.693,4.902,9.21,8.271c3.209,4.295,4.947,9.119,5.495,14.449  c0.271,2.632,0.928,5.223,1.412,7.832c0.018,0.097,0.053,0.189,0.077,0.284c0.638,2.187,0.2,2.78-2.067,2.813  c-0.442,0.006-0.887,0.01-1.332,0.025c-1.765,0.064-2.714-0.846-2.888-2.608c-0.294-2.981-0.452-5.979-1.291-8.892  c-1.057-3.682-2.811-6.971-5.268-9.906c-0.247-0.296-0.398-0.775-0.392-1.165c0.034-2.158-0.31-4.247-0.866-6.327  c-0.876-3.276-4.571-6.065-8.447-5.42c-0.094,0.016-0.192,0.022-0.558,0.062c-0.444-2.186-0.747-4.134-0.967-6.114  C54.969,47.003,56.357,48.757,56.931,49.348z M63.622,43.837c-0.188,0.527-0.486,1.017-0.757,1.512  c-0.181,0.329-0.415,0.345-0.722,0.102c-2.006-1.595-4.049-3.147-6.011-4.79c-0.401-0.334-0.596-0.976-0.756-1.513  c-0.553-1.858,0.344-2.614,2.019-3.555c0.743-0.417,1.204-1.029,1.8-1.563c0.167-0.151,0.357-0.403,0.532-0.4  c1.472,0.034,2.945,0.115,4.483,0.186c0.068,1.435,0.073,2.837,0.216,4.224C64.633,40.049,64.284,41.963,63.622,43.837z   M81.742,30.439c-2.274,0.428-4.539,0.903-6.815,1.318c-0.747,0.136-1.517,0.187-2.278,0.201c-2.588,0.046-5.183,0.15-7.766,0.062  c-3.785-0.129-7.564-0.398-11.347-0.627c-0.488-0.03-0.895-0.01-1.431-0.026c0.018-0.086-0.039-0.418-0.023-0.504  c1.114,0.053,2.279,0.102,3.391,0.167c1.107,0.065,2.212,0.174,3.319,0.226c2.535,0.117,5.072,0.315,7.608,0.291  c3.475-0.034,6.925-0.312,10.326-1.209c2.054-0.541,4.211-0.702,6.329-0.987c0.594-0.079,1.224-0.024,1.726,0.618  C83.699,30.134,82.717,30.256,81.742,30.439z"></path></svg>