<svg xmlns="http://www.w3.org/2000/svg" xmlns:xlink="http://www.w3.org/1999/xlink" version="1.1" x="0px" y="0px" viewBox="0 0 100 100" enable-background="new 0 0 100 100" xml:space="preserve"><g display="none"><rect x="-627.879" y="-45.155" display="inline" fill="#000000" width="1286.936" height="912.422"></rect></g><g><g><path d="M34.258,72.342h1.218c0.462,0,0.853-0.25,0.853-0.546v-7.083c0-0.323-0.377-0.459-0.492-0.494    c-0.116-0.035-0.245-0.053-0.375-0.053c-0.31,0-0.625,0.105-0.785,0.352c-1.038,1.6-1.564,3.31-1.564,5.083    c0,0.77,0.104,1.544,0.307,2.3C33.484,72.148,33.854,72.342,34.258,72.342z"></path><path d="M40.874,72.342h2.485c0.463,0,0.854-0.25,0.854-0.546V59.083c0-0.177-0.138-0.303-0.22-0.362    c-0.172-0.125-0.403-0.19-0.639-0.19c-0.127,0-0.255,0.019-0.375,0.059c-0.915,0.301-1.8,0.666-2.631,1.083    c-0.205,0.104-0.328,0.265-0.328,0.434v11.689C40.021,72.092,40.411,72.342,40.874,72.342z"></path><path d="M48.758,72.342h2.485c0.463,0,0.854-0.25,0.854-0.546V58.072c0-0.274-0.35-0.519-0.78-0.547    c-0.463-0.03-0.894-0.044-1.316-0.044c-0.422,0-0.853,0.015-1.316,0.044c-0.43,0.028-0.779,0.273-0.779,0.547v13.724    C47.904,72.092,48.295,72.342,48.758,72.342z"></path><path d="M64.525,72.342h1.218c0.404,0,0.773-0.194,0.84-0.441c0.203-0.756,0.307-1.53,0.307-2.3c0-1.773-0.526-3.483-1.564-5.083    c-0.16-0.247-0.476-0.352-0.785-0.352c-0.13,0-0.259,0.019-0.375,0.053c-0.115,0.034-0.492,0.171-0.492,0.494v7.083    C63.673,72.092,64.063,72.342,64.525,72.342z"></path><path d="M56.642,72.342h2.485c0.463,0,0.854-0.25,0.854-0.546V60.107c0-0.168-0.123-0.33-0.328-0.433    c-0.832-0.418-1.717-0.783-2.631-1.084c-0.12-0.04-0.248-0.059-0.375-0.059c-0.235,0-0.467,0.065-0.639,0.19    c-0.082,0.059-0.22,0.185-0.22,0.362v12.713C55.788,72.092,56.179,72.342,56.642,72.342z"></path><path fill="#000000" d="M46.152,28.209c0-2.842-2.313-5.154-5.154-5.154s-5.154,2.312-5.154,5.154s2.313,5.155,5.154,5.155    S46.152,31.051,46.152,28.209z M38.192,28.209c0-1.547,1.259-2.806,2.806-2.806s2.806,1.259,2.806,2.806    c0,1.547-1.259,2.806-2.806,2.806S38.192,29.756,38.192,28.209z"></path><path fill="#000000" d="M59.003,23.055c-2.842,0-5.154,2.312-5.154,5.154s2.313,5.155,5.154,5.155s5.154-2.313,5.154-5.155    S61.845,23.055,59.003,23.055z M59.003,31.015c-1.547,0-2.806-1.259-2.806-2.806c0-1.547,1.259-2.806,2.806-2.806    s2.806,1.259,2.806,2.806C61.809,29.756,60.55,31.015,59.003,31.015z"></path><path fill="#000000" d="M88.575,66.969l-0.145-0.034l-0.039-0.144c-1.721-6.304-6.116-11.52-12.061-14.311l-0.144-0.067V40.752    c0-6.994-2.724-13.57-7.67-18.518c-4.567-4.566-10.625-7.275-17.058-7.626l-0.236-0.013v-2.907l0.147-0.066    c1.2-0.541,1.976-1.736,1.976-3.045c0-1.845-1.501-3.346-3.347-3.346c-1.845,0-3.346,1.501-3.346,3.346    c0,1.309,0.775,2.504,1.976,3.045l0.147,0.066v2.907l-0.236,0.013c-6.433,0.352-12.49,3.06-17.058,7.626    c-4.946,4.948-7.671,11.524-7.671,18.518v11.659l-0.144,0.068c-5.946,2.79-10.343,8.007-12.062,14.313l-0.039,0.144l-0.145,0.034    c-3.577,0.842-6.174,4.257-6.174,8.12c0,1.038,0.844,1.881,1.882,1.881s1.882-0.844,1.882-1.881c0-2.515,1.852-4.562,4.127-4.562    s4.127,2.046,4.127,4.562c0,1.038,0.844,1.881,1.882,1.881s1.882-0.844,1.882-1.881c0-3.568-2.159-6.735-5.372-7.882l-0.229-0.082    l0.076-0.231c1.359-4.151,4.175-7.706,7.926-10.009l0.381-0.234v17.462c0,4.003,1.679,7.866,4.605,10.599l6.595,6.156    c2.694,2.515,6.209,3.9,9.895,3.9h10.187c3.686,0,7.2-1.385,9.895-3.9l6.595-6.156c2.927-2.732,4.604-6.596,4.604-10.599V56.655    l0.381,0.234c3.75,2.304,6.564,5.857,7.924,10.007l0.076,0.231l-0.229,0.082c-3.211,1.147-5.369,4.314-5.369,7.881    c0,1.038,0.844,1.881,1.882,1.881s1.882-0.844,1.882-1.881c0-2.515,1.852-4.562,4.127-4.562s4.126,2.046,4.126,4.562    c0,1.038,0.844,1.881,1.882,1.881s1.882-0.844,1.882-1.881C94.75,71.226,92.153,67.811,88.575,66.969z M43.758,90.94    c-2.33-0.249-4.466-1.225-6.177-2.822l-6.595-6.156c-0.446-0.417-0.864-0.891-1.277-1.446l-0.297-0.399h10.585l4.167,10.867    L43.758,90.94z M53.313,91.006h-6.624l-4.176-10.89h14.976L53.313,91.006z M70.292,80.516c-0.413,0.556-0.83,1.029-1.277,1.446    l-6.595,6.156c-1.71,1.597-3.847,2.573-6.178,2.822l-0.406,0.043l4.167-10.867h10.585L70.292,80.516z M72.424,51.007v23.107    c0,1.165-0.2,2.337-0.595,3.485l-0.058,0.169H28.229l-0.058-0.169c-0.395-1.147-0.595-2.32-0.595-3.485V51.007v-0.5h0.5h43.848    h0.5V51.007z M72.424,47.658v0.5h-0.5H28.076h-0.5v-0.5v-6.906c0-5.989,2.333-11.62,6.568-15.856    c4.235-4.235,9.867-6.568,15.855-6.568c5.989,0,11.621,2.333,15.856,6.568c4.235,4.234,6.567,9.865,6.567,15.856V47.658z"></path><path fill="#000000" d="M55.738,35.44H44.263c-2.412,0-4.374,1.962-4.374,4.374s1.962,4.374,4.374,4.374h11.476    c2.412,0,4.374-1.962,4.374-4.374S58.15,35.44,55.738,35.44z M45.888,41.838h-1.625c-1.117,0-2.025-0.908-2.025-2.025    s0.908-2.025,2.025-2.025h1.625V41.838z M51.764,41.838h-3.526v-4.05h3.526V41.838z M55.738,41.838h-1.625v-4.05h1.625    c1.117,0,2.025,0.908,2.025,2.025S56.855,41.838,55.738,41.838z"></path></g></g></svg>