<svg xmlns="http://www.w3.org/2000/svg" xmlns:xlink="http://www.w3.org/1999/xlink" version="1.1" x="0px" y="0px" viewBox="0 0 300 300" style="enable-background:new 0 0 300 300;" xml:space="preserve"><g><path d="M280.8,128.4c-7.6-11.5-17.1-18.3-26.2-18.9c-0.9,0-1.7,0.4-2.3,1.1c-0.6,0.7-0.8,1.6-0.5,2.5c3.9,12.4,0.2,27.3-2.5,37.1   c-5.3-5.4-14.9-9.1-22.4-12c-2.4-0.9-4.6-1.7-6.3-2.5c-0.9-0.5-2.1-0.3-2.9,0.4s-1.2,1.8-0.9,2.8c2,7.4,1.3,14.8,0.7,22   c-1.2,13.2-2.4,26.6,13.5,37.2c-1.3,1.5-2.5,2.9-3.7,4c-6.5,5.6-13.5,9-20.9,10.6c1.3-9.1-0.2-18.4-2.9-24.6   c-0.8-1.9-1.6-3.6-2.5-5.2c-0.6-2.2-1.3-4.4-1.9-6.6c-1.8-5.8-3.6-11.8-4.6-17.9c-1.4-8.1,2.4-16.4,7.3-26.1   c9.9-15.5,14.1-39.9,9.7-56.6c-2-10-4.4-15-6.2-18.6c-1.5-3.2-2.6-5.3-2.7-9.4c0-0.3-0.1-0.6-0.2-0.9c-4.6-11.5-3-20.9,4.8-28   c0.3-0.3,0.5-0.7,0.7-1.1c1.1-3.1,0.4-5.5-0.4-6.9c-1.3-2.4-4-4.2-7.2-4.8c-11.9-2.4-27.5,7.8-37.2,17.2c-2.9,2.8-6.2,6.4-7.7,9.6   c-12.3-3.2-26-2.5-37.1-1.3c-1.9-1.8-3-3.9-3.2-6.4c-0.2-3.4,1.3-7.1,4.5-10.5c3.8-4.8,2.5-8.3,1.7-9.6c-1.1-1.8-3.2-2.9-5-2.9   c-7.5-1.8-22.8,7-29.9,14.1c-9.7,9.7-16.7,24.2-17.5,36.2c-6.5,11-9.5,24.3-8.8,39.5c0.1,3.6,0,8.8-1,12.4c-2.5,9-9.5,18-18.3,29.4   l-3.6,4.7c-18.1,23.7-25.8,50.8-20.7,72.3c5.9,24.9,25.1,48.3,47.8,59.7c12.8,10.3,36.8,18.9,49,21.1c12.6,2.3,24.4,3.4,35.6,3.4   c38.1,0,68.4-13,90.5-38.8c11.1-12.9,22.7-31.6,26.5-49.9c0.6-0.1,1.2-0.3,1.6-0.4c7.5-2.2,17.3-13.8,20.3-24   C293.1,163.6,290.3,142.7,280.8,128.4z M254.2,153.7c0.9-3.3,2.1-7.6,3.1-12.4c3.3,12.9,6,29.5,3.7,40.8c-1.3-1-2.8-1.6-4.4-2   c-1.1-4.4-1.6-9.9-2-15.2c-0.3-3.3-0.5-6.4-0.9-9.2C253.8,155.1,254,154.4,254.2,153.7z M223.1,161.4c0.5-6.1,1.1-12.3,0.2-18.7   c0.5,0.3,1.1,0.5,1.7,0.7c8.5,3.2,21.2,8.1,22.7,14.4c0.3,1.2,1.4,2.1,2.7,2.1c0.8,0,1.5-0.3,2-0.9c-0.9,1.2-2.7,1.3-3.9,0.4   c0.2,1.9,0.4,3.8,0.5,5.9c0.4,5.1,0.8,10.3,1.8,14.9c-1.6,0.3-3.1,0.9-4.5,1.7c-4-8-4.1-20.4-4-30.1c-1.6-1.1-3.5-2.2-5.6-3.2   c0,0.7,0,1.5,0,2.3c-0.1,11.3-0.1,25,4.9,34.4c-0.7,0.6-1.4,1.3-2,2c-8.4-10.3-7.8-21-7.2-33.3c0.1-2.3,0.3-4.7,0.3-7.2   c-1.8-0.8-3.7-1.5-5.5-2.2c0,3-0.2,6.1-0.3,9.1c-0.7,12.6-1.3,25.6,9.1,37.9c-0.6,0.8-1.2,1.5-1.8,2.3   C221,184.9,222,174.3,223.1,161.4z M21.9,209.3c-1.7-7.1-1.7-14.4-0.6-21.8c4.1,5,12.1,13.5,17.9,6.4c3.8-4.6-9.2-16.2-14.1-21.6   c1.4-4,3-7.9,4.9-11.6c3.6,5.8,14.9,14.3,19,6.9c0.8-6.4-10.8-12.3-13.1-17.5c1.9-3,3.8-5.8,5.8-8.4l0.5-0.6   c3.7,5.5,11.5,12.4,14.4,8.3c3.1-4.4-3.3-11.9-7.6-17.2c7.4-9.7,13.1-17.9,15.5-26.6c1.5-5.2,1.3-12.1,1.2-14.1   C65,77.2,67.8,64.7,74,54.6c0.2-0.4,0.4-0.8,0.4-1.3c0.5-10.9,6.9-24.2,15.9-33.2c6.7-6.8,18.8-12.8,23.6-12.8   c0.5,0,0.8,0.1,1.3,0.2c0.5,0.1,0.8,0.2,1.2,0.1c0,0,0.2,0,0.3,0.3c0.2,0.6-0.1,1.7-1.2,3.1c-4.2,4.4-6.2,9.6-5.8,14.6   c0.3,4.4,2.6,8.3,6.2,11c0.6,0.4,1.3,0.6,2,0.5c11.6-1.2,26.4-2.2,38.8,1.7c0.9,0.3,1.9,0.2,2.6-0.4c0.7-0.6,1.1-1.5,0.9-2.4   c0.2-1.8,5.9-9.1,15.5-16c9.2-6.6,17.8-9.7,23.6-8.6c1.3,0.3,2.9,1,3.5,2.1c0.2,0.4,0.4,0.9,0.2,1.8c-8.9,8.6-10.9,20-5.8,33.2   c0.3,5,1.7,7.8,3.3,11.1c1.8,3.5,3.9,7.9,5.8,17.4c4.1,15.4,0.2,38-9.1,52.6c-5.3,10.5-9.6,20-7.9,29.8c0.5,2.9,1.2,5.8,1.9,8.7   c1.4,4.2,2.4,8.4,3.3,11.4c0.8,2.9,1.6,4.9,1.8,6.3c0.7,1.3,1.4,2.8,2.1,4.5c4.2,9.9,5.1,29.4-6.3,39.7c-4.2,3.8-9.5,3.1-12.5,0.4   c-5.1-4.5-5.5-10.1-1.3-17.1c3.7-6.2,4.7-13.8,3.1-23.3c-1.7,0-3.6-0.2-5.7-0.4c1.6,8.7,1,15.5-2.1,20.8c-4.9-1.5-9.7-3.4-14.6-5.6   c0.4-6.6-0.2-13-1.2-17.1c-0.1-0.4-0.2-0.9-0.4-1.4c-2.2-0.5-4.5-1-6.7-1.6c0.7,1.5,1.2,3,1.5,4.3c2.4,9.7,1.6,27.4-5.2,34.2   c-2.6,2.6-5.9,3.4-10.1,2.4c-2.6-0.7-4.6-2.2-6.1-4.7c-3.1-5.2-3.3-14.1-0.4-24.9c1.4-5.2,0.5-13.2,0.3-14.8   c-0.1-0.9-0.2-1.7-0.2-2.4c-2-0.7-3.8-1.4-5.5-2c0,1.5,0.1,3.1,0.3,5c0.1,0.9,0.2,2,0.2,3.2c-6.9-4.8-13.4-9.8-19.5-14.6   c-0.5-0.4-1.1-0.6-1.7-0.6c-0.6,0-1.1,0-1.6,0.1c-3.6-1.3-7.7-1.2-12.2,0.5c-11.5,4.6-23.7,19.3-31.8,38.2   c-7.8,18.2-9.9,35.7-6.5,47.1C37.6,243.8,26,226.7,21.9,209.3z M63.5,262.4c-8.9-3.8-11-25.4,0.2-51.5   c7.5-17.4,18.8-31.2,28.8-35.2c1.8-0.7,3.5-1.1,5-1.1c1.2,0,2.3,0.2,3.4,0.7c8.9,3.8,11,25.4-0.2,51.5   C93.2,244.2,81.9,258,71.9,262C68.7,263.3,65.8,263.4,63.5,262.4z M235.2,252.4c-27.3,31.8-68,43.1-121,33.6   c-12.2-2.2-32-9.7-43.7-17.8c1.1-0.2,2.3-0.6,3.5-1.1c11.5-4.6,23.7-19.3,31.8-38.2c7.7-17.9,9.8-35.1,6.6-46.5   c4.2,3.2,8.6,6.3,13.1,9.4c-0.1,1.1-0.2,2.1-0.4,2.9c-3.3,12.4-3,22.5,1,29.2c2.2,3.7,5.6,6.2,9.6,7.2c1.6,0.4,3.2,0.6,4.7,0.6   c4.1,0,7.7-1.5,10.7-4.5c4-4,6.2-10.2,7.3-16.7c4.2,1.9,8.5,3.5,12.8,4.9c-3.6,9.7,1.2,16,4.8,19.2c2.5,2.2,6,3.6,9.7,3.6   c3.4,0,7-1.2,10.2-4.1c4.7-4.2,7.6-9.7,9.3-15.4c9.1-1.6,17.7-5.4,25.7-12.4c2.6-2.2,4.9-5.2,7.3-8.4c4.4-5.8,8.9-11.8,15-12.5   c1.9-0.2,3.8,0.4,5.3,1.8c2,1.7,3.1,4.4,3.1,7.4C261.5,214.6,247.3,238.3,235.2,252.4z M265.3,187.3c6.3-19.3-4.3-53.4-5.6-57.6   c-0.1-0.4-0.4-0.8-0.7-1.1c0.2-2.8,0.1-5.5-0.1-8.3c5.2,6.6,10.8,19.1,12.5,26.6c2.4,10.8,2.6,31.5-5,42.9   C266.1,188.9,265.8,188.1,265.3,187.3z M282.6,180.2c-2.3,7.9-10.2,17.7-15.8,19.9c0.1-0.9,0.2-1.7,0.2-2.6   c12-11.2,13.2-36.6,9.8-51.8c-1.5-6.6-6-17.8-11.3-25.8c-2.2-1.6-4.3-2.8-6.3-3.5l-0.8-0.2c0-0.1,0-0.2-0.1-0.4   c6.1,2,12.5,7.5,18,15.7C284.8,144.3,287.3,163.9,282.6,180.2z"></path><path d="M86.3,96.8c3.4,2.8,7.6,4.3,11.9,4.3c0.6,0,1.3,0,2.1-0.1c10.4-1.1,18-10.5,16.9-21c-0.5-5-2.9-9.6-6.9-12.8   c-4-3.3-9-4.7-14-4.2c-10.4,1.1-18,10.5-16.9,21C79.9,89,82.3,93.6,86.3,96.8z M96.8,68.6c0.4-0.1,0.9-0.1,1.4-0.1   c3.1,0,6.1,1,8.5,3c2.8,2.3,4.5,5.5,4.9,9.1c0.5,4.8-1.6,9.3-5.1,12.1c0.1-0.5,0.1-0.9,0-1.4c-0.3-3.2-3.2-5.5-6.4-5.2   c-3.3,0.3-5.6,3.2-5.2,6.4c0.1,1.1,0.5,2.1,1.2,2.9c-2.3-0.3-4.5-1.3-6.4-2.8c-2.8-2.3-4.5-5.5-4.9-9.1   C84,76.1,89.4,69.4,96.8,68.6z"></path><path d="M159.1,98.6c3.4,2.8,7.6,4.3,11.9,4.3c0.6,0,1.3,0,2.1-0.1c10.4-1.1,18-10.5,16.9-21c-0.6-5-3-9.6-7-12.8   c-4-3.3-8.9-4.7-14-4.2c-10.4,1.1-18,10.5-16.9,21C152.7,90.8,155.1,95.4,159.1,98.6z M169.6,70.4c0.5-0.1,0.9-0.1,1.4-0.1   c3.1,0,6.1,1,8.5,3c2.8,2.3,4.5,5.5,4.9,9.1c0.8,7-4,13.4-10.8,14.7c0.9-1.2,1.5-2.7,1.3-4.3c-0.3-3.2-3.2-5.5-6.4-5.2   c-3.2,0.3-5.5,3.2-5.2,6.4c0,0.4,0.1,0.8,0.2,1.2c-0.4-0.2-0.7-0.5-1-0.8c-2.8-2.3-4.5-5.5-4.9-9.1   C156.8,77.9,162.2,71.2,169.6,70.4z"></path><path d="M114.6,107.9c-1.4,0.6-2.1,2.2-1.5,3.6c1.7,4.2,5.6,6.7,10.3,6.7c0.4,0,0.8,0,1.2,0c3.7-0.3,7.8-2.3,10.2-6   c0.7,0.5,1.5,0.9,2.4,1.2c0,0,0,0,0,0c-0.1,0.3-0.1,0.7-0.2,1.1c-2.6,10.2,0,21.5,6.3,27.4c1.7,1.6,5,3.1,8.3,3.1   c2.2,0,4.5-0.7,6.1-2.6c6.4-6.4,1.3-15.6-2.9-22.9c-1.5-2.8-3.1-5.6-3.8-7.7c2.3-1.7,3.5-4.1,3.3-6.8c-0.1-1.5-1.5-2.7-3-2.5   c-1.5,0.1-2.6,1.5-2.5,3c0.1,0.8-0.4,1.4-1.1,1.9c-0.3,0-0.5,0.1-0.8,0.2c-0.8,0.4-1.4,0.6-2,0.8c-3.9,0.7-7.9-0.6-8.3-2.1   c-0.1-0.3-0.2-0.6-0.3-0.8c2.9-0.9,5.3-2.6,6.5-4.7c0.7-1.3,0.3-3-1-3.8c-1.3-0.7-3-0.3-3.8,1c-0.6,0.9-2.3,2.2-4.8,2.6   c-2.4,0.4-4.5-0.1-6-1.3c-1.2-0.9-2.9-0.8-3.9,0.4c-0.9,1.2-0.8,2.9,0.4,3.9c2,1.7,4.7,2.6,7.6,2.7c0,0,0,0.1,0,0.1   c-0.9,4-4.2,6-7.2,6.3c-1.3,0.1-4.5,0-5.9-3.3C117.6,108,116,107.3,114.6,107.9z M142.3,115.8c0.2-0.4,0.2-0.9,0.3-1.4   c0.1,0,0.1,0,0.2,0c1-0.1,1.9-0.3,3.1-0.6c0.9,2.6,2.4,5.4,4.2,8.5c4.2,7.5,7,13.1,3.8,16.3c-1.8,1.8-5.9,0.1-6.8-0.8   C142.2,133.3,140.2,124.1,142.3,115.8z"></path><path d="M84.7,48.8c1.9,0.8,9.1-2.2,12.3-5.3c1.4-1.4,1.8-1.1,1.5-2.6c-2.4-6.1,3.8-19.2-0.4-21.4c-8,4.8-15,17.1-15.2,27.2   C83.3,48.3,83.8,48.6,84.7,48.8z"></path><path d="M175.5,45c4.3,4.5,11.4,10.7,15.4,7.8c0.4-0.3,0.9-2.1,0.5-2.9c-3.5-7.3-2.9-19,0.3-26.4c-0.3-0.7-1.7-2-3-1.9   c-6.9,2.4-17.8,16.9-15.4,21.1C173.9,43.3,174.6,44.1,175.5,45z"></path><path d="M89.2,223.6c2-5.8,1.7-11.4-0.4-14.4c2.5-7.5,6.1-17.1,5.8-19.1c-4.1,3.4-7.8,10.9-10.7,17.1c-3.6,0.8-7.6,5.2-9.7,11.3   c-1.9,5.5-1.8,10.8,0,13.9c-2.1,5.8-7,14.2-5.7,19.1c3.1-4.4,6.7-11.1,9.5-16.5C81.9,235.4,86.8,230.6,89.2,223.6z"></path><path d="M105,253.2c-2,0.3-3.3,2.2-3,4.2s2.1,3.3,4.1,3c2-0.4,3.3-2.2,3-4.2C108.8,254.2,107,252.9,105,253.2z"></path><path d="M123.1,247.6c-0.3-2-2.1-3.3-4.1-3s-3.3,2.2-3,4.2s2.1,3.3,4.1,3C122.1,251.4,123.4,249.6,123.1,247.6z"></path><path d="M118.4,237.9c2-0.4,3.3-2.2,3-4.2s-2.1-3.3-4.1-3c-2,0.3-3.3,2.1-3,4.2C114.6,236.9,116.4,238.2,118.4,237.9z"></path><path d="M137.1,240.2c-0.3-2-2.1-3.3-4.1-3c-2,0.3-3.3,2.2-3,4.2s2.1,3.3,4.1,3C136.1,244,137.4,242.2,137.1,240.2z"></path><path d="M125.6,257.3c-2,0.4-3.3,2.2-3,4.2c0.3,2,2.1,3.3,4.1,3c2-0.4,3.3-2.2,3-4.2S127.6,257,125.6,257.3z"></path><path d="M142.6,252.3c-1.9,0.3-3.3,2.2-3,4.2c0.3,2,2.1,3.3,4.1,3c2-0.4,3.3-2.2,3-4.2S144.6,252,142.6,252.3z"></path><path d="M155.9,237.4c-0.3-2-2.1-3.3-4.1-3c-1.9,0.3-3.3,2.2-3,4.2c0.3,2,2.1,3.3,4.1,3C154.9,241.2,156.2,239.4,155.9,237.4z"></path><path d="M160.9,246.2c-1.9,0.3-3.3,2.2-3,4.2s2.1,3.3,4.1,3c2-0.4,3.3-2.2,3-4.2S162.9,245.9,160.9,246.2z"></path><path d="M169.1,232.6c-0.3-2-2.1-3.3-4.1-3c-1.9,0.3-3.3,2.2-3,4.2s2.1,3.3,4.1,3C168.1,236.4,169.4,234.6,169.1,232.6z"></path><path d="M157.3,262.2c-2,0.3-3.3,2.2-3,4.2c0.3,2,2.1,3.3,4.1,3c2-0.4,3.3-2.2,3-4.2S159.3,261.9,157.3,262.2z"></path><path d="M174.6,255.4c-2,0.3-3.3,2.2-3,4.2c0.3,2,2.1,3.3,4.1,3c2-0.4,3.3-2.2,3-4.2S176.6,255.1,174.6,255.4z"></path><path d="M177.4,242c-1.9,0.3-3.3,2.2-3,4.2s2.1,3.3,4.1,3c2-0.4,3.3-2.2,3-4.2S179.4,241.7,177.4,242z"></path><path d="M191.9,247.5c-2,0.3-3.3,2.2-3,4.2s2.1,3.3,4.1,3c2-0.4,3.3-2.2,3-4.2S193.9,247.2,191.9,247.5z"></path><path d="M187.9,260.2c-2,0.3-3.3,2.2-3,4.2c0.3,2,2.1,3.3,4.1,3c2-0.4,3.3-2.2,3-4.2S189.9,259.9,187.9,260.2z"></path><path d="M205.1,252.5c-2,0.3-3.4,2.2-3,4.2c0.3,2,2.1,3.3,4.1,3c2-0.4,3.3-2.2,3-4.2S207.1,252.2,205.1,252.5z"></path><path d="M204.6,240.6c2-0.4,3.3-2.2,3-4.2c-0.3-2-2.1-3.3-4.1-3c-2,0.3-3.4,2.2-3,4.2C200.8,239.6,202.6,240.9,204.6,240.6z"></path><path d="M216.5,236.3c-2,0.3-3.3,2.2-3,4.2s2.1,3.3,4.1,3c2-0.4,3.3-2.2,3-4.2C220.3,237.3,218.5,236,216.5,236.3z"></path><path d="M230.2,235.9c-2,0.3-3.3,2.2-3,4.2s2.1,3.3,4.1,3c2-0.4,3.3-2.2,3-4.2C234,236.9,232.2,235.6,230.2,235.9z"></path><path d="M228.8,225.4c-0.3-2-2.1-3.3-4.1-3c-2,0.3-3.3,2.2-3,4.2s2.1,3.3,4.1,3C227.8,229.2,229.1,227.4,228.8,225.4z"></path><path d="M238.3,219.2c-1.9,0.3-3.3,2.2-3,4.2c0.3,2,2.1,3.3,4.1,3c2-0.4,3.3-2.2,3-4.2S240.3,218.9,238.3,219.2z"></path><path d="M242.4,207.2c-1.9,0.3-3.3,2.2-3,4.2s2.1,3.3,4.1,3c2-0.4,3.3-2.2,3-4.2S244.4,206.9,242.4,207.2z"></path><path d="M252,197.2c-2,0.3-3.3,2.1-3,4.2c0.3,2,2.1,3.3,4.1,3c2-0.4,3.3-2.2,3-4.2C255.8,198.2,254,196.9,252,197.2z"></path><path d="M113.7,264.7c-2,0.3-3.3,2.2-3,4.2c0.3,2,2.1,3.3,4.1,3c2-0.4,3.3-2.2,3-4.2S115.7,264.4,113.7,264.7z"></path><path d="M138.3,268.1c-2,0.3-3.4,2.2-3,4.2c0.3,2,2.1,3.3,4.1,3c2-0.4,3.3-2.2,3-4.2S140.3,267.8,138.3,268.1z"></path><path d="M170.6,268.3c-1.9,0.3-3.3,2.2-3,4.2c0.3,2,2.1,3.3,4.1,3c2-0.4,3.3-2.2,3-4.2S172.6,268,170.6,268.3z"></path><path d="M182.3,123.9c-4.3-3.2-8.2-6-12.5-8.8c-0.9-0.6-2-0.4-2.6,0.5c-0.6,0.9-0.4,2,0.5,2.6c4.2,2.8,8.1,5.6,12.3,8.7   c0.3,0.3,0.7,0.4,1.1,0.4c0.5,0,1.1-0.2,1.6-0.8C183.3,125.7,183.1,124.5,182.3,123.9z"></path><path d="M186.3,115.6c-2.5-1.6-5.2-2.8-7.8-3.9c-2.2-1-4.3-1.9-6.2-3c-0.9-0.5-2-0.2-2.5,0.7c-0.5,0.9-0.2,2,0.7,2.5   c2.1,1.3,4.4,2.2,6.6,3.2c2.5,1,5,2.2,7.3,3.6c0.3,0.2,0.7,0.3,1,0.3c0.6,0,1.2-0.4,1.5-0.9C187.4,117.3,187.2,116.1,186.3,115.6z"></path><path d="M102.7,111.5c-0.2-0.9-1.2-1.5-2.2-1.3c-4.9,1.3-11.4,4.6-15.7,8.1c-0.8,0.7-0.9,1.8-0.3,2.6c0.3,0.5,0.9,0.7,1.4,0.7   c0.4,0,0.8-0.2,1.2-0.6c3.9-3.2,9.8-6.2,14.3-7.3C102.3,113.5,102.9,112.5,102.7,111.5z"></path><path d="M104.2,116.8l-0.8,0.4c-5,2.7-9.7,5.3-13.7,10.1c-0.7,0.8-0.6,1.9,0.2,2.6c0.4,0.3,0.8,0.4,1.2,0.4c0.6,0,1.1-0.2,1.4-0.6   c3.6-4.3,8-6.7,12.7-9.3l0.8-0.4c0.9-0.5,1.2-1.6,0.7-2.5C106.2,116.6,105.1,116.3,104.2,116.8z"></path><path d="M105.8,60.3c0.1,0,0.2,0,0.3,0.1c1-0.1,1.7-1.1,1.5-2.1c-0.2-1.3-0.9-5.1,0.2-7.3c0.5-0.9,0.1-2-0.8-2.5s-2-0.1-2.5,0.8   c-1.4,2.9-1,6.8-0.5,9.5C104.1,59.7,104.9,60.3,105.8,60.3z"></path><path d="M110.3,59.7c-0.1,1.1,0.7,1.9,1.7,2h0.1c1,0,1.8-0.8,1.9-1.7c0.1-1,0-2,0-3.1c-0.1-2-0.1-4,0.5-5.3   c0.5-0.9,0.1-2.1-0.8-2.5c-1-0.5-2.1-0.1-2.5,0.8c-1.1,2.1-1,4.6-0.9,7C110.3,57.9,110.4,58.8,110.3,59.7z"></path><path d="M158,63.4c0.1,0,0.1,0,0.2,0c0.9,0,1.7-0.7,1.8-1.6c0.3-2.2,1.1-5.6,1.7-7.7c0.3-1-0.2-2-1.2-2.3s-2,0.2-2.3,1.2   c-0.7,2.2-1.5,5.8-1.8,8.4C156.3,62.4,157,63.3,158,63.4z"></path><path d="M163.8,63.4c0.1,0,0.2,0,0.3,0c0.9,0,1.7-0.6,1.8-1.5c0.3-1.9,1-3.7,1.6-5.5c0.3-0.8,0.6-1.6,0.8-2.3c0.3-1-0.2-2-1.2-2.3   s-2,0.2-2.3,1.2c-0.2,0.7-0.4,1.4-0.7,2.2c-0.7,1.8-1.4,3.8-1.8,6C162.1,62.2,162.8,63.2,163.8,63.4z"></path></g></svg>