<svg xmlns="http://www.w3.org/2000/svg" xmlns:xlink="http://www.w3.org/1999/xlink" version="1.1" x="0px" y="0px" viewBox="0 0 300 300" style="enable-background:new 0 0 300 300;" xml:space="preserve"><g><path d="M192,101.8c1.4-1,2.8-2.1,4.1-3.4c1.9-1.9,3.9-7.1,4.1-10.7c1-23.3-30.8-38.8-47.1-16.9C135.8,93.9,169.1,118.2,192,101.8z    M167.9,90.2c0-5.5,4.5-10,10-10c2.7,0,5.2,1,7.1,2.9c1.9,1.9,2.9,4.4,2.9,7.1c0,5.5-4.5,10-10,10c-2.7,0-5.2-1-7.1-2.9   C168.9,95.4,167.9,92.8,167.9,90.2z"></path><path d="M250.6,106.3c8.9,0,16.1-7.3,16.2-16.2c0-4.3-1.7-8.4-4.7-11.4c-3-3-7.1-4.7-11.4-4.7c-8.9,0-16.2,7.3-16.2,16.2   c0,4.3,1.7,8.4,4.7,11.4S246.3,106.3,250.6,106.3z M250.6,80.1c2.7,0,5.2,1,7.1,2.9c1.9,1.9,2.9,4.4,2.9,7.1c0,5.5-4.5,10-10,10   c-2.7,0-5.2-1-7.1-2.9c-1.9-1.9-2.9-4.4-2.9-7.1C240.6,84.6,245.1,80.1,250.6,80.1z"></path><path d="M206.8,117.6c-1.6,0.5-2.6,2.1-2.1,3.8c0.4,1.4,1.6,2.2,3,2.2c0.3,0,0.5,0,0.8-0.1l2.9-0.8c6.2-1.8,10.2-2.9,17-2.1   c1.7,0.2,3.2-1,3.4-2.7c0.2-1.7-1-3.2-2.7-3.4c-3.3-0.4-6.1-0.4-8.6-0.1c0-0.7,0-1.6,0-2.4c0,0,0.1,0,0.1,0c4-0.7,7.2-2.7,8.9-5.7   c0.8-1.5,0.3-3.3-1.2-4.2c-1.1-0.6-2.4-0.5-3.3,0.2c-0.3,0.2-0.6,0.6-0.9,1c-1,1.7-3,2.4-4.6,2.6c-3.2,0.5-7.3-0.4-9.1-2.1   c-0.2-0.2-0.5-0.3-0.7-0.5c-1.2-0.6-2.7-0.4-3.6,0.7c-1.1,1.3-1,3.2,0.2,4.3c2,1.8,4.9,3,8,3.5c0,1.2,0,2.4,0.1,3.6   c-1.5,0.4-3.1,0.8-4.7,1.3L206.8,117.6z"></path><path d="M182.7,90.3c0-2.6-2.1-4.7-4.7-4.7c-2.6,0-4.7,2.1-4.7,4.7c0,2.6,2.1,4.7,4.7,4.7C180.6,95,182.7,92.9,182.7,90.3z"></path><path d="M250.8,95c2.6,0,4.7-2.1,4.7-4.7c0-2.6-2.1-4.7-4.7-4.7c-2.6,0-4.7,2.1-4.7,4.7C246.1,92.9,248.2,95,250.8,95z"></path><path d="M161.3,43.8c1.1-1.6-6.7-27.6-12.7-20.1c-2.1,2.7-4.7,18.1-3.9,24.4c0.2,1.3,0.5,2.2,1,2.6   C148.3,52.4,159.2,46.9,161.3,43.8z"></path><path d="M267.7,48c-0.4-7.9-0.6-17.6-5-24.2c-0.9-1.4-2.6-1.4-3.5,0c-1.8,2.9-5.4,12.9-6,17.9c-0.1,0.8-0.2,1.4-0.1,1.9   C252.3,46.3,266.3,50,267.7,48z"></path><path d="M89.8,145.7c-1.4,0.6-2.8,1.6-4,2.7c-5.6,5.3-8.5,15.4-0.7,20.4c7.1,4.6,18.9,2.2,20.1-6.7   C106.4,153.3,99.1,141.7,89.8,145.7z"></path><path d="M111.2,185.6c-3.1,3-4.9,6.3-5.7,9.5c-3.9,15.6,16.4,31,34.8,23.4C179,202.4,122.6,174.5,111.2,185.6z"></path><path d="M177.1,191.7c-3.2,0-5,2.1-5.7,4.8c-1.4,5.9,2.7,15,11.3,14C198.5,208.6,192.9,191.5,177.1,191.7z"></path><path d="M296.3,110.6c-2.6-0.9-5.5-1.1-8.3-1.4c-2-0.2-4-0.4-5.8-0.7c0-1.5,0-3,0-4.6l1.6,0.1c3.2,0.2,6.5,0.5,9.7,0.5   c0.6,0,1.3,0,1.9,0c1.1,0,2-1,2-2.1c0-1.1-0.8-2-2.1-2c-3.6,0.1-7.4-0.2-11.1-0.5l-1.9-0.1c-0.2-40.7-5-85-18.1-94.5   c-0.5-0.3-1-0.5-1.6-0.6c-10.1-0.7-17.3,11.6-24.2,23.4c-1.4,2.4-2.8,4.7-4.2,7l-54.2-0.5c-1.2-1.5-3.3-5-5-7.8   c-6.2-10.5-14-23.5-23-23.8c-3.7-0.1-7.1,1.8-9.9,5.9c-6.1,8.7-12.9,35.6-14.4,56.4c0,0-0.1,0-0.1,0l-15.1,3.2   c-0.6,0.1-1.2,0.5-1.6,0.9c-17.3,1.8-34.9,5.7-48.3,13.4C54.4,86,44.6,93.6,44.1,94c-23.4,18.3-38.4,52.2-36.6,82.3   c1.4,23.2,13.9,49.1,38.6,57.3c2.8,25.6,9.1,50,30.5,59.3c3,1.3,6.4,1.9,9.7,1.9c6.2,0,12.1-2.2,15.6-6.1c3.4-4,3.7-9.1,0.6-14   c-1.2-1.9-3.5-3.1-5.8-4.2c-0.4-0.2-0.9-0.5-1.4-0.7c0.2-6.2,1.2-12.1,2.5-17.8c1.2,0.2,2.4,0.4,3.6,0.6c0.2,0,0.4,0.1,0.5,0.1   c3.2,16.8,9.5,31,22.4,37.7c2.7,1.4,5.6,2,8.6,2c4.8,0,9.4-1.7,12.6-4.9c4-4,4.7-9.6,2-15.1c-1-1.9-3.1-3.2-5.1-4.3   c-0.3-0.2-0.7-0.4-1.1-0.6c0.1-4,0.6-7.8,1.2-11.6c0.4,0,0.8,0,1.3,0c3.5,0,7.2-0.1,11.5-0.5c0.9-0.1,1.9-0.2,2.8-0.2   c2.5,20.3,10.2,37.5,22.5,40.1c2.6,0.5,5.7,0.9,8.8,0.9c4.8,0,9.6-0.8,12.7-2.6c5.9-3.4,9.1-7.6,6-17.1c-1.7-5.2-7.7-9.4-10.7-11.2   c0.3-3.7,1.1-7.9,2.1-12.4c4-0.4,8-0.9,11.8-1.6c3.2,18.4,11.3,33.8,20,39.8c2.8,1.9,6.6,2.9,10.4,2.9c3,0,5.9-0.6,8.3-1.9   c4.5-2.4,13.8-7.3,10.3-18c-1.7-5.2-7.6-9.4-10.7-11.3c0.5-6.2,2.4-13.9,4.3-22c2-8.4,4-16.9,5-24.7c11.3-18.4,18.6-42.1,21.3-68.6   c0.3-3,0.6-6.1,0.8-9.4c0.4-0.7,0.8-1.3,1.2-2c0.3-0.5,0.4-1.1,0.4-1.7l-0.6-15.9c0.1-1.9,0.1-3.9,0.1-5.9c1.8,0.3,3.6,0.5,5.5,0.7   c2.7,0.2,5.3,0.5,7.4,1.2c0.2,0.1,0.4,0.1,0.6,0.1c0.9,0,1.7-0.5,1.9-1.4C298,112.1,297.4,110.9,296.3,110.6z M133.4,71.3   c0.5-17.7,5.9-41.7,10.9-53.5c4.8-0.4,12.3-1.6,14.9-3.5c3.9,4.5,7.8,11,10.5,15.6c3.3,5.5,5.3,8.8,7.1,10.2   c0.5,0.4,1.2,0.6,1.8,0.6l13.2,0.1c6.3,4.3,13.6,17.2,19.3,20.3c8.3,4.5,23.4,4.5,25.1-6.4c0.7-4.7,0.5-8.9-0.4-13.5   c0.9-0.1,2-0.5,2.5-1.4c1.8-2.7,3.5-5.7,5.2-8.6c3-5.1,6.3-10.6,9.6-14.6c3.8,0.8,9,2,12.7,1.5c3.6,8.2,6.1,21.3,7.8,36.7   c-1.8,1.3-3.4,2.4-5.4,4.7c-4,4.8,0.8,14,7,15.4c0.7,12.4,0.9,25.4,0.7,38c-1.8,3.4-3.6,6.8-5.6,10.2c-3.2-2.2-8-3.3-12.9-1.8   c-13.3,4.2-9.1,19.8-9,31.1c-5.6,5.5-12,10.4-19.2,14.1c-1.3-0.4-2.6-0.6-4.1-0.7c-1.5-0.1-3.2,0.1-4.8,0.4   c-9.5-2.8-21.1-8.1-32.8-15.9c-0.6-9.1-10.2-16.8-20.2-16.2c-2.1-2-4.1-4.1-6-6.2c-11.1-12.2-23.5-41.5-28.5-55   C133.2,72.4,133.3,71.9,133.4,71.3z M225.9,208.8c3.1,0,6.3-0.9,8.5-2.7c2-1.6,3.2-3.7,3.5-6.1c2.1,0.7,3.7,1.5,4.6,2.3   c0.3,0.3,0.8,0.8,0.9,1.4c0.1,2.1-6.6,6.4-17.8,7c-8.7,0.4-15.1-1.6-17.4-3.7c-0.3-0.3-0.8-0.8-0.9-1.4c-0.1-1.3,2.4-3.3,6.7-4.9   c0.5,2.7,2.2,5.1,5,6.5C221.1,208.3,223.5,208.8,225.9,208.8z M220.1,199.2c1.6-0.3,3.3-0.5,5.1-0.6c2.5-0.1,4.7,0,6.8,0.2   c0,1.3-0.7,2-1.3,2.5c-2.1,1.6-6.1,1.8-8.7,0.5C220.2,200.8,220.1,199.7,220.1,199.2z M224.8,192.5c-5.2,0.3-10.4,1.3-14.6,3.1   l6.2-20.4c1-1.7,4.6-3.4,8.5-3.2c1.7,0.1,4.7,0.6,5.8,3.4l8.9,18.8C235.5,192.8,230.4,192.2,224.8,192.5z M126,71.9   c4.3,12.3,18,46.1,30.8,60.1c17.1,18.8,38.7,31.8,55.8,38.1c-0.8,0.8-1.4,1.6-1.9,2.6c-0.1,0.1-0.1,0.3-0.2,0.4l-0.1,0.4   c-12.6-2.9-37.3-11.8-54.7-28.3c-2.8-2.6-5.5-5.3-8.1-8.2c-1.1-1.4-2.2-2.7-3.4-4c-17.2-20.8-28.2-46.7-28.3-58.9L126,71.9z    M248.1,239.3c-2.2,9.3-4.3,18-4.6,25c-0.1,1.2,0.6,2.3,1.7,2.9c3.9,2,8.5,5.7,9.5,8.7c1.6,4.9-1.2,7.5-7.3,10.7   c-3.7,2-9.6,1.3-12.4-0.7c-7.6-5.2-14.7-19.3-17.5-36.2c12.1-3.3,23.1-9.6,33.4-22.1C249.9,231.6,249,235.5,248.1,239.3z    M253.1,213.9c-2.4,3.8-4.8,7.1-7.2,10c-13.3-6.5-27.2,1-25.7,18.5c-6,2.1-12.4,3.3-19.2,4.1c0.3-1.1,0.5-2.2,0.8-3.4   c0.6-2.4,1.1-4.7,1.7-7.1c-2.2,0.9-4.4,1.7-6.8,2.3c-0.3,1.1-0.5,2.3-0.8,3.4c-2.2,9.3-4.2,18-4.6,25c-0.1,1.2,0.6,2.3,1.6,2.9   c3.9,2,8.5,5.8,9.5,8.7c2.1,6.4,0.3,7.8-3.3,9.9c-3.1,1.8-10.9,2.3-17.1,1c-8.6-1.8-15.4-16.6-17.7-35.3   c6.4-0.1,15.6-8.6,14.1-15.2c-1.9-8.6-12.8-13.6-20.3-10.6c0,0.4,0,0.8,0,1.2c0,0.7,0,1.4,0.1,2.2c-0.2-0.1-0.4-0.3-0.6-0.4   c-0.4,6-0.4,12.1,0,18c-0.9,0.1-1.8,0.2-2.8,0.2c-9.3,0.9-15.6,0.5-22.9,0.1l-4.3-0.2l-0.2,3.1l-0.2,3.1h0l4.3,0.2   c1.6,0.1,3.2,0.2,4.9,0.3c-0.7,4.2-1.1,8.6-1.2,13.1c0,0.6,0.2,1.3,0.6,1.8c0.8,1.1,2,1.9,3.5,2.7c0.8,0.5,2.4,1.4,2.7,1.9   c1.6,3.1,1.3,5.8-0.8,7.9c-2.8,2.8-9,4.3-14.1,1.7c-10.4-5.3-15.8-17-18.8-31.3c8.4,1.1,11.9,1.3,18.9,1.7l0.3-3.1l0.1-3.1   c-8.5-0.5-11.6-0.6-25.3-2.6c-1-0.1-2-0.3-3-0.5c0.4-1.6,0.9-3.3,1.3-4.9c0.7-2.5,1.4-5,2-7.5c-2,0.5-4.2,0.8-6.6,0.9   c-0.4,1.7-0.9,3.3-1.3,5c-2.7,10-5.5,20.3-5.5,31.9c0,0.7,0.3,1.4,0.7,2c0.9,1,2.3,1.7,4.1,2.6c1,0.5,3,1.5,3.4,2   c1.6,2.6,1.6,4.9,0,6.8c-3.1,3.6-11.3,5.5-18.2,2.6c-18-7.8-23.8-29.1-26.6-52.1c2.4,0.4,4.7,0.6,6.9,0.6c0.8,0,1.6,0,2.3-0.1   c10.1,18.7,28.2-1.2,19.7-8.2c3-2.7,5.4-5.8,7.1-9.1c6.6-12.9,3.3-29.1-7.1-34.7c-1.6-0.9-7.8-1.9-10.3-1.4   c-8.7,1.8-8.8,8-8.8,10.6l0,0.5c0,1.2,0,2.3,0.1,3.4c0.2,2.2,0.3,4-0.6,6.8c-0.7,2.1-4,4.6-6.4,4.3c-4.1-0.1-7.4-2-10.1-5.7   c-4.7-6.4-6.6-17.1-6.7-27.4c6.9-0.4,12.9,0.9,19.2-6.8c9.4-11.4,2.6-33.2-10.3-39.4c-0.6-0.5-1.2-1-1.7-1.6   c-5.5,7.4-7.7,14.4-10.7,25.1c-3.8,13.6-4.7,40,5.3,53.7c3.8,5.2,8.9,8,14.9,8.2c3.2,0.1,6.6-1.4,9.1-3.7c1.7,1.5,4.3,2.4,6.4,3   c3.4,0.9,6.9,1.4,10.4,1.7c1,0.1,1.7,0.1,2.2,0c-0.1,0.2-0.2,0.4-0.3,0.6c-4.6,9-15.9,16.5-31,13.1c-17.8-4.1-29.2-18.4-34.6-34.5   c2.7-1.7,4.2-2.6,6.5-7.1c2.5-5-3.1-15.9-10.3-17.2c0.3-24.7,12-51,29.9-67.5c2-2.8,4.7-5.6,8-8.2c-0.6,2.1-1,3.7,0,8.3   c4.9,23.5,24,30.9,42.8,19.8c1.4-0.8,18.8-20.8,19.8-22.1c0.2-0.3,1.3-1,2.4-1.6c5.1,11.9,12.8,25.2,22.1,36.7   c-2.3,3.9-4.8,7.4-5.9,12.2c-6.9,32,43.2,34.2,47.8,23.5c0.2-0.6,0.4-1.2,0.4-1.9c4.3,2.1,8.5,3.8,12.5,5.3   c-3.5,7.8,3.5,16.7,11,19.2l-2,6.7c-0.1,0.4-0.2,0.8-0.1,1.2c-0.7,1.3-1.1,2.6-1,4.1c0.1,1.4,0.6,3.6,2.9,5.6   c3.7,3.4,11,5.4,19.2,5.4c0.9,0,1.8,0,2.6-0.1c12-0.6,24-5.4,23.6-13.4c0-0.5-0.1-1-0.3-1.5c0.2-0.7,0.1-1.4-0.2-2.1l-10-21.2   c5.8-3.3,11.1-6.9,16.1-10.9c1.1,6.5,8.5,10.3,13.7,8.5C265.2,190.4,259.9,203.1,253.1,213.9z M236.5,173L236.5,173   c-0.4-1-0.9-1.9-1.5-2.6c18.6-10.7,31.3-27.9,41.2-45l0.3,8.4C266.6,150.3,253.5,163.3,236.5,173z"></path><path d="M170.8,117.8c1.4,0,2.9-0.1,4.6-0.2c1.1-0.1,2-1.1,1.9-2.2c-0.1-1.1-1.2-2-2.2-1.9c-1.6,0.1-3,0.2-4.4,0.2   c-3.1,0.1-6,0.1-10.2,1.2c-1.1,0.3-1.8,1.4-1.5,2.5c0.2,0.9,1.1,1.6,2,1.6c0.2,0,0.3,0,0.5-0.1C165.2,118,167.8,117.9,170.8,117.8z   "></path><path d="M177.5,119.5c-4.9,0.8-10.7,2.8-14.3,4.3c-1,0.4-1.5,1.6-1.1,2.7c0.3,0.8,1.1,1.2,1.9,1.2c0.3,0,0.5-0.1,0.8-0.2   c4.3-1.9,9.6-3.4,13.3-4c1.1-0.2,1.9-1.2,1.7-2.3C179.7,120.1,178.6,119.4,177.5,119.5z"></path></g></svg>