<svg xmlns="http://www.w3.org/2000/svg" xmlns:xlink="http://www.w3.org/1999/xlink" version="1.1" x="0px" y="0px" viewBox="0 0 300 300" style="enable-background:new 0 0 300 300;" xml:space="preserve"><g><path d="M258.7,117.3c-1-2.7-1.9-5.2-2.6-7.4c0.3-0.1,0.5-0.2,0.7-0.3c0.4-0.2,0.8-0.4,1.2-0.6c1.1-0.5,1.7-1.7,1.5-2.9   c-0.5-3.2-3.6-7.9-7.6-13.8c1.2-0.7,2.2-1.5,2.6-1.9c0.7-0.7,1-1.8,0.7-2.8c-1.5-4.9-7.6-12.5-12.9-17.7c1.6-0.2,2.8-0.6,3.8-1.1   c1.1-0.5,1.6-1.7,1.4-2.9c-1-5.2-7.5-11.3-12.6-13.4c-0.2-2.2-0.2-4.6-0.3-7.1C234,27.8,233.4,7.8,222,5.9   c-10.1-1.7-26.9,15.5-31.9,21c-2-0.1-4,0-5.9,0.1c0-0.5-0.1-1-0.3-1.5c-0.3-1-1.1-1.8-2-2.1c-0.3-0.1-0.5-0.2-0.8-0.2   c-1.3,0-3-0.3-4.7-0.6c-3.8-0.6-8.3-1.4-12.5-0.4c-0.2-0.4-0.3-0.8-0.4-1.2c-0.1-0.8-0.5-1.4-1.1-1.8c-0.5-0.4-1.3-0.5-2-0.4   c-1.5,0.3-2.8,0.5-3.9,0.6c-2.8,0.3-5.3,0.6-8.6,2.3c-3.9-2.8-8.6-3.9-14.5-3.6c-1.3,0-2.3,1-2.5,2.3c-0.1,0.3-0.1,0.6-0.1,0.9   c-7.5-1.4-18.1,0.2-24.5,2.6c-2.5-1-7.3-4.7-11.5-7.9C84.9,8.4,78.6,3.9,74,5c-7,1.6-9,12-10,22.3c-0.1,1.2-1.2,16.1-0.3,19.3   c0.3,1,0.3,1,0.3,1.9v2.3c0,0.2,0,0.5,0,0.7c-4.3,2.9-7.3,5.5-9,7.6c-0.9,1.1-0.7,2.7,0.3,3.7c0.6,0.6,1.1,1.2,1.7,1.9   c0.3,0.3,0.6,0.7,0.9,1.1c-8.2,7.2-17.5,18.5-20.8,28c-0.3,1-0.1,2.1,0.6,2.8c0.6,0.8,2.7,2.2,5,3.2c-4.6,7.2-13.5,23.1-9.7,28   c0.5,0.7,2.8,1.7,4.9,2.4c-2.9,9-5,26.2-0.8,32.9c0.5,0.9,1.5,1.4,2.5,1.3c0.7-0.1,1.9,0.2,2.9,0.4c0.6,0.1,1.2,0.2,1.8,0.3v0.3   c0.8,10.2,1.8,22.9,7.9,27.4c0.8,0.6,1.7,0.7,2.6,0.4c0.7-0.3,1.3-0.7,1.8-1.1c1.7,6.3,5.5,12.8,9.2,17.4c0.6,0.8,1.5,1.1,2.5,1   c0.9-0.2,1.7-0.8,2.1-1.7l0.4-1.1c0.2-0.6,0.4-1.1,0.6-1.5c2.1,5.6,6.2,13.8,9.2,14.8c1.2,0.4,2.5-0.1,3.2-1.2   c1-1.7,1.8-3.5,2.6-5.2c0.3-0.7,0.7-1.4,1-2.1c1.5,3,3,7.2,3.5,10.5c-0.8,3.2-1.2,6.6-1.2,10c0,17.1,9.9,26.1,23,30.7   c-1.3,2.7-1.6,5.7-0.7,8.7c2,6.5,9.3,10.6,18.9,10.6c0.7,0,1.4,0,2,0.1c5.7-0.4,10.4-3,13.8-7.8c1.2-1.7,2.2-3.7,3-5.8   c0.8,2.2,1.8,4.1,3.1,5.9c3.3,4.8,8.1,7.5,13.7,7.8c0.7,0.1,1.4,0.1,2.1,0.1c9.6,0,17-4,19.1-10.7c0.9-3.1,0.6-6.2-0.9-9.1   c8.5-3.1,15.6-8.1,19.4-15.9c0.1,0,0.3,0.1,0.4,0.1c7,2.1,15.8,4.7,17.6,9.3c0.8,2,0.3,4.3-1.4,7.2c-0.1,0.2-0.5,0.6-1.4,1.1   c-4.5-3.6-12-4.9-17.7-4.4c-1,0.1-1.8,0.6-2.2,1.5c-0.2,0.5-0.3,1.1-0.2,1.7c-3.9,0.4-8.7,1.9-10.6,4.2c-0.6,0.7-0.8,1.6-0.5,2.5   c0.3,0.8,0.9,1.5,1.8,1.8c0.3,0.1,0.7,0.3,1.1,0.5c-2.4,2.2-4.9,5.4-4.8,8.5c0.1,1.1,0.7,2,1.6,2.4c0.5,0.2,1.2,0.7,1.9,1.3   c1,0.9,2.3,1.9,4.1,2.9c-0.3,1.1-0.6,2.2-0.6,2.6c-0.2,1.4,0.9,2.7,2.3,2.9l2.5,0.4c4.2,0.6,6.1,0.9,12-0.2c0.3,0,1.1-0.2,1.9-0.5   c0.1,0,0.1,0.1,0.1,0.1c0.7,1.3,2,2.1,3.6,2.1c0,0,0.1,0,0.1,0c4.2-0.2,12.5-6.8,15-10c8.2-5.2,13.4-14.7,13.7-25   c0.3-10.1-4.1-19-12-24.4c-7.5-5.2-17.2-7.3-25.4-7c-0.2-2.2-0.5-4.3-1-6.4c0.4-2,0.8-4.1,1.2-5.6c0.9,0.6,1.9,1.2,3.2,1.5   c1.2,0.3,2.5-0.3,3-1.5c0.7-1.6,2.3-4.1,3.9-6.8c1.5-2.4,2.7-4.4,3.7-6.2c0.9,1.9,1.9,3.6,3.1,5.4c0.6,0.8,1.6,1.2,2.6,1.1   c1-0.1,1.8-0.8,2.2-1.7c0-0.1,2.4-6.2,4.1-11.4c0.2,0.2,0.5,0.4,0.8,0.6c0.8,0.4,1.7,0.5,2.4,0.2c0.7-0.3,1.3-0.9,1.6-1.7   c0.8-2.6,2.3-5.6,3.9-8.8c1.9-3.9,4-8.1,5.3-12.4c0.4,0.6,1.1,1,1.9,1.1c1.2,0.1,2.3-0.5,2.8-1.5c5-9.9,5.6-19,4.6-29.3   c1.7-0.3,3-0.5,3.3-0.5c1.4,0.2,2.8-0.8,3-2.2C265.8,136.8,262,126.4,258.7,117.3z M209.2,234.7c6.8-0.3,15.5,1.2,22.5,6   c6.3,4.3,9.8,11.5,9.6,19.7c-0.3,8.7-4.7,16.7-11.6,20.8c-0.1,0.1-0.2,0.1-0.3,0.2c0,0,0,0,0,0.1c-0.2,0.1-0.4,0.3-0.5,0.5   c-0.1,0.1-0.2,0.3-0.4,0.4l-0.1,0.1l-0.7,0.8c-1.5,1.5-4.5,3.9-7,5.5c-0.8,0.6-1.6,1-2.2,1.3l-0.1-0.2l-0.4-0.8   c-0.1-0.2-0.3-0.4-0.4-0.5l-0.4-0.4c-0.1-0.1-0.3-0.2-0.4-0.3c-0.3-0.2-0.6-0.3-0.9-0.3c-0.1,0-0.1,0-0.2,0c-0.2,0-0.3,0-0.4,0   c-0.1,0-0.3,0-0.4,0h-0.2h-0.2c-0.2,0.1-0.5,0.1-0.7,0.2c-1.1,0.3-2.2,0.7-2.7,0.8c-4.5,0.9-6,0.8-9,0.4l-0.7-0.1l0.2-0.7   c0.7-1.5,0.1-3.2-1.4-3.8c-2-0.8-3.3-1.7-4.4-2.6l-1.6-1.3c0.9-1.5,2.9-3.7,4.6-4.7c1.4-0.8,1.8-2.6,0.8-3.9l-1.5-1.3l0.5-0.2   l0.5-0.1c2-0.5,4.1-0.8,5.4-0.6c0.8,0.1,1.6-0.1,2.1-0.6c0.4-0.3,0.7-0.7,0.8-1.2l0.1-1.3h0.3h0.4c4.2,0.4,8.6,1.8,10.6,4   c0.8,0.8,2,1.1,3.1,0.7c1-0.4,2-1,2.9-1.5c0.1-0.1,0.2-0.1,0.3-0.2c0,0,0,0,0,0c1.2-0.8,2.1-1.6,2.7-2.6c2.6-4.4,3.2-8.4,1.8-11.9   c-2.8-7.1-13-10.1-21.2-12.5c-0.1,0-0.1,0-0.2-0.1C208.7,240.1,209.1,237.5,209.2,234.7z M254.4,140.9c-1.4,0.3-2.4,1.6-2.2,3   c1.2,10.1,0.8,17.1-1.6,23.8c-0.5-0.6-1.2-1.1-2-1.6c-0.8-0.5-1.8-0.6-2.7-0.1c-0.8,0.5-1.4,1.4-1.4,2.4c0,5.3-3,11.3-5.9,17.1   c-0.8,1.5-1.5,3-2.2,4.4c-0.4-1.2-1.5-1.9-2.8-1.9c-1.3,0.1-2.4,1.2-2.5,2.5c-0.2,1.2-1.9,6.4-3.6,11.1c-0.8-1.7-1.5-3.4-2.2-5.4   c-0.4-1.2-1.5-2-2.8-1.8c-1.2,0.1-2.2,1.1-2.4,2.3c-0.3,2-3.4,7.1-5.7,10.8c-1.1,1.7-2.1,3.3-2.9,4.8c-1.1-0.8-2.6-1.7-4.5-1.4   c-0.8,0.2-1.5,0.6-1.9,1.2c-0.1,0.1-0.2,0.3-0.3,0.5c-0.5,0.2-1,0.6-1.2,1.1c-0.3,0.7-0.7,1.4-1.1,2.2c-1.2,2.4-2.4,5-4.4,6.1   c-1.3,0.7-1.7,2.4-1,3.7c0.5,0.9,1.4,1.4,2.4,1.4c0.5,0,0.9-0.1,1.3-0.3c1.4-0.8,2.5-2,3.5-3.2c0,0.1,0,0.1,0,0.2   c0,2.4-0.4,4.7-1.2,6.9c0.2-0.2,0.5-0.4,0.7-0.6c0.1,0.9,0.1,1.9,0.1,2.8c0,13-6.6,21.5-20.7,26.1c-0.7-0.6-1.4-1.2-2.2-1.8   c0-0.4,0-0.7,0-1.1c0-0.1,0-0.2,0.1-0.3c0.3-1.5,0.8-3.4,1.5-5.4c0.1-0.1,0.1-0.3,0.2-0.4c0,0,0,0,0,0c1.6-4.7,3.8-10.1,5.3-13.3   c0.6-1.3,0.1-2.9-1.3-3.6c-1.3-0.6-2.9-0.1-3.6,1.3c-2,4.2-5.4,12.3-6.9,18.1c-0.1,0-0.2,0.1-0.3,0.1c-0.3,1.2-0.5,2.4-0.6,3.6   c0,0.1,0,0.2,0,0.3c0,0.2,0,0.5,0,0.7c0,0.2,0,0.4,0,0.6c0,0.2,0,0.3,0,0.5c0,0.4,0.1,0.7,0.1,1.1c0.1,0.8,0.6,1.5,1.3,1.9   c2.6,1.5,4.2,3.3,5.1,5.2c0,0,0,0.1,0.1,0.1c0,0.1,0,0.1,0.1,0.2c1,2.5,0.5,5.1-1.4,7.1c-2.4,2.6-7.1,4.3-13.7,3.9   c-0.5,0-0.9-0.1-1.4-0.2c-0.1,0-0.2,0-0.3-0.1c-0.3-0.1-0.5-0.1-0.8-0.2c-4.5-1.2-7.6-4.8-9.5-9.7c-0.1-0.1-0.1-0.3-0.2-0.4   c-0.1-0.3-0.2-0.5-0.3-0.8c0-0.1-0.1-0.3-0.1-0.4c0,0,0,0,0,0c-0.8-2.6-1.4-5.5-1.7-8.4c-0.2-3.6-0.1-6.6,0-9.7   c0.1-3.6,0.2-7.3-0.1-12.3c0.6-0.6,1.3-1.1,2-1.7c1.8-1.5,4-3.3,6-5.8c0.4,0.2,0.9,0.5,1.4,0.7c1,0.5,2.7,1.3,3,1.7   c0.7,1.3,2.3,1.9,3.6,1.3c3-1.4,5.1-3.9,7-6.1c0.9-1.1,1.8-2.1,2.6-2.8c1.1-1,1.2-2.7,0.2-3.8s-2.7-1.2-3.8-0.2   c-1.1,1-2.1,2.1-3.1,3.3c-1.2,1.3-2.3,2.7-3.6,3.7c-1-0.7-2.2-1.3-3.4-1.9c-0.9-0.4-2.2-1.1-2.5-1.4c-0.6-0.6-1.3-1-2.2-0.9   c-0.8,0.1-1.5,0.5-2,1.2c-2,3-4.4,5-6.6,6.8c-0.6,0.5-1.3,1.1-1.9,1.6c-3.2-2.4-5.6-5.5-9-10.3c-0.5-0.8-1.3-1.2-2.2-1.2   c-0.9,0-1.7,0.4-2.2,1.1c-0.5,0.8-1.7,2-2.8,3.1c-1,1-2,2.1-2.9,3.1c-0.2-0.1-0.4-0.3-0.6-0.4c-2.1-1.4-3.5-2.3-5.2-5   c-0.8-1.3-2.5-1.6-3.8-0.8c-1.3,0.9-1.6,2.5-0.8,3.8c2.4,3.7,4.5,5.1,6.8,6.6c0.8,0.5,1.6,1.1,2.6,1.8c0.7,0.5,1.5,0.7,2.3,0.5   c0.8-0.2,1.4-0.8,1.8-1.5c0.5-1,2.3-2.8,3.7-4.2c0.4-0.4,0.7-0.7,1-1c3.1,4.1,5.7,7,9.1,9.4c0.2,4.5,0.2,8.1,0.1,11.5   c-0.1,2.9-0.1,5.9,0,9.4c-0.5,5.6-2,10.9-4.7,14.7c-2.4,3.5-5.6,5.3-9.6,5.5c-9.1,0.6-14.4-3-15.5-6.7c-0.3-1-0.3-2-0.1-3   c0,0,0,0,0-0.1c0-0.1,0.1-0.3,0.1-0.4c0.5-2,2-4.1,4.7-5.8c0.3-0.2,0.5-0.4,0.8-0.5c0.7-0.4,1.1-1.1,1.3-1.9c0.1-0.3,0.1-0.7,0.1-1   c0.1-1.7-0.1-3.5-0.6-5.4c-0.1,0-0.3-0.1-0.4-0.1c-1.6-5.8-4.8-13.5-6.7-17.6c-0.6-1.4-2.3-1.9-3.6-1.3c-1.4,0.6-2,2.2-1.3,3.6   c2.3,4.6,6,14.1,7,19.1c0,0.2,0.1,0.4,0.2,0.5c0,0.1,0,0.2,0,0.3c-0.9,0.6-1.8,1.3-2.6,2.1c-14.4-4.5-21-13.1-21-26.2   c0-1.1,0.1-2.1,0.1-3.2c0.3-0.6,0.5-1.2,0.7-1.8c-0.3-1.4-0.5-2.8-0.5-4.2c0-0.2,0-0.4,0-0.6c1.4,1.3,2.9,2.4,4.2,3.2   c0.4,0.3,0.9,0.4,1.4,0.4c0.9,0,1.8-0.5,2.3-1.4c0.8-1.3,0.4-2.9-0.9-3.7c-2.6-1.5-6.8-5.6-8-8.2c-0.3-0.6-0.8-1.1-1.4-1.3   c-1.5-3.3-3-5.8-3.5-6.5c-0.5-0.7-1.2-1-2.2-1.1c-0.9,0-1.7,0.4-2.2,1.1c-1.5,2-2.7,4.4-3.8,6.8c-0.2,0.4-0.4,0.9-0.6,1.3   c-2.3-3.9-5.5-10.9-5.6-12.7c-0.1-0.9-0.6-1.8-1.4-2.2c-0.8-0.5-1.8-0.5-2.6-0.1c-2,1-3.2,2.3-4.1,3.7c-3.5-5.3-6.4-12.1-6.4-17.2   c0-1-0.5-1.9-1.4-2.4c-0.9-0.5-2-0.4-2.8,0.1c-1.6,1-2.4,2.5-3,3.6c-2.8-4.8-3.6-15.1-4.1-21.6l-0.2-2.8c-0.1-0.9-0.5-1.6-1.2-2.1   c-0.7-0.5-1.5-0.6-2.3-0.3c-0.4,0-1.7-0.2-2.5-0.4c-0.8-0.1-1.7-0.3-2.5-0.4c-2.4-6.4-0.1-22.9,2.8-29.4c0.4-0.9,0.3-1.9-0.3-2.7   c-0.5-0.6-1.2-1-2-1.1c-0.7-0.2-3-1.1-4.3-1.6c-0.1-4.5,8.7-20.9,11.8-24.3c0.7-0.8,0.9-2,0.4-3s-1.6-1.6-2.7-1.5   c-0.8,0.1-2.6-0.8-4-1.6c3.9-9,13.3-19.7,20.7-25.7c0.6-0.5,1-1.3,1-2.1c0-0.8-0.3-1.6-1-2.1c-0.9-0.7-1.7-1.6-2.5-2.6   c-0.1-0.1-0.2-0.2-0.3-0.3c1.7-1.6,4.3-3.5,7.4-5.6c0.8-0.5,1.2-1.4,1.2-2.3c0-0.7,0-1.4,0-2.1v-2.3c0-1.4,0-1.8-0.5-3.4   c-0.5-1.9,0.1-13.7,0.5-17.6c1.4-13.5,3.9-16.9,5.8-17.3c2.3-0.6,11.3,6.3,16.2,10c5.8,4.5,10.9,8.3,14.3,9.1   c0.6,0.2,1.2,0.1,1.7-0.1c7.5-3.1,21.7-4.4,26-1.4c0.9,0.7,2.2,0.7,3.1,0c0.9-0.7,1.3-1.9,1-3c-0.2-0.5-0.4-1-0.6-1.4   c3.6,0.3,6.4,1.4,8.8,3.5c0.9,0.8,2.2,0.9,3.2,0.3c3.2-1.9,5.2-2.1,8.1-2.5c0.6,0,1.2-0.1,1.9-0.2c0.2,0.5,0.2,0.7,0.2,1.1   c-0.1,1,0.4,2,1.2,2.5s1.9,0.6,2.8,0.1c3.2-1.8,8.1-1,12.3-0.3c1.1,0.2,2.1,0.4,3.1,0.5v0.1c-0.5,0.9-0.5,1.9,0,2.8   c0.5,0.9,1.5,1.4,2.5,1.3c3-0.2,6.7-0.4,10.1-0.2c0.9,0,1.6-0.3,2.2-0.9c9.4-10.5,22.4-21.1,27.8-20.2c7,1.2,7.6,21.9,8,34.3   c0.1,3.3,0.2,6.4,0.4,9.1c0.1,1.3,1,2.3,2.3,2.5c2.6,0.4,7.2,4.1,9.3,7.4c-0.8,0.1-1.7,0.2-2.3,0.3c-1.3,0.1-2.5,0.3-3.3,0.5   c-1,0.3-1.8,1.1-2,2.1s0.2,2.1,1,2.7c4.4,3.5,12.1,11.9,14.7,17.2c-0.6,0.4-1.2,0.7-1.4,0.8c-1,0-2,0.5-2.5,1.4   c-0.5,0.8-0.5,1.9,0.1,2.8c0.5,0.7,1.1,1.6,1.7,2.5c2,2.8,5,7.3,6.3,10.1c-0.5,0.2-1.1,0.5-1.6,0.7c-1.3,0.5-2.1,1.9-1.7,3.3   c0.8,2.7,2,6.2,3.4,10c2.4,6.8,5.6,15.7,5.8,21C257.8,140.3,256.4,140.5,254.4,140.9z"></path><path d="M96.7,43.4c0.1-0.2,0.1-0.3,0.2-0.4c2.4-4.3-12-20-19-17.1c-1.6,0.7-4,17.2,0.1,23.6c1.9,2.9,5,3.8,10.1,0.2   C91.3,47.5,94.8,46.8,96.7,43.4z"></path><path d="M217.9,25.9c-7-2.9-21.4,12.8-19,17.1c0.1,0.1,0.1,0.2,0.2,0.4c1.9,3.4,5.4,4.1,8.5,6.3c5.1,3.6,8.2,2.7,10.1-0.2   C221.8,43.1,219.4,26.6,217.9,25.9z"></path><path d="M107.2,77.4c-11.2,0-20.4,9.2-20.4,20.5c0,11.3,9.1,20.5,20.4,20.5c11.2,0,20.4-9.2,20.4-20.5   C127.6,86.6,118.4,77.4,107.2,77.4z M107.2,112.9c-8.3,0-15-6.7-15-15c0-8.3,6.7-15,15-15c8.2,0,15,6.8,15,15   C122.2,106.2,115.5,112.9,107.2,112.9z"></path><path d="M205.7,97.9c0-11.3-9.1-20.5-20.4-20.5c-11.2,0-20.4,9.2-20.4,20.5c0,11.3,9.1,20.5,20.4,20.5   C196.6,118.4,205.7,109.2,205.7,97.9z M170.3,97.9c0-8.3,6.7-15,15-15c8.3,0,15,6.8,15,15c0,8.3-6.7,15-15,15   C177,112.9,170.3,106.2,170.3,97.9z"></path><path d="M107.7,90.6c-4,0-7.3,3.3-7.3,7.3s3.3,7.3,7.3,7.3s7.3-3.3,7.3-7.3S111.7,90.6,107.7,90.6z"></path><path d="M191.4,97.9c0-4-3.3-7.3-7.3-7.3s-7.3,3.3-7.3,7.3s3.3,7.3,7.3,7.3S191.4,101.9,191.4,97.9z"></path><path d="M177.8,66.4c0,1,0.7,1.9,1.8,1.9c1,0,1.8-0.8,1.8-1.9c0-1.1,0-2.3,0-3.5c-0.1-2.3-0.1-4.7,0.3-6.6c0.2-0.9-0.4-1.9-1.4-2.1   c-0.9-0.2-1.9,0.4-2.1,1.4c-0.5,2.4-0.4,5-0.4,7.5C177.8,64.2,177.8,65.3,177.8,66.4z"></path><path d="M188,69c1,0,1.8-0.8,1.8-1.8c0.1-2.3,0.9-8.1,1.4-9.6c0.3-0.9-0.2-2-1.1-2.3c-0.9-0.3-2,0.2-2.3,1.1   c-0.8,2.2-1.5,8.7-1.6,10.7C186.1,68.1,186.9,69,188,69z"></path><path d="M110.2,63c0,1.2,0,2.4,0,3.5c0,1,0.8,1.8,1.8,1.8c1.1,0,1.9-0.9,1.8-1.9c0-1,0-2.2,0-3.3c0-2.5,0.1-5.2-0.4-7.5   c-0.2-1-1.1-1.6-2.1-1.4s-1.6,1.1-1.4,2.1C110.3,58.3,110.2,60.7,110.2,63z"></path><path d="M101.9,67.3c0,0.9,0.8,1.7,1.8,1.7s1.8-0.9,1.8-1.9c-0.1-2-0.8-8.4-1.6-10.6c-0.3-0.9-1.3-1.4-2.3-1.1   c-0.9,0.3-1.4,1.4-1.1,2.3C101,59.2,101.8,65,101.9,67.3z"></path><path d="M204,143.6c-4.4-3.3-10.2-6-15.4-8.4l-2.7-1.2c-0.9-0.4-2,0-2.4,0.9c-0.4,0.9,0,2,0.9,2.4l2.7,1.3c5,2.3,10.6,5,14.8,8   c0.4,0.2,0.7,0.3,1.1,0.3c0.6,0,1.1-0.3,1.4-0.8C205,145.3,204.8,144.2,204,143.6z"></path><path d="M207.7,134.3c-6-2.8-14-4.6-19.4-5.4c-1.1-0.2-2,0.5-2.1,1.5c-0.2,1,0.5,2,1.5,2.1c4.9,0.7,12.7,2.5,18.3,5.1   c0.3,0.1,0.5,0.2,0.8,0.2c0.7,0,1.4-0.4,1.8-1.1C209,135.8,208.6,134.7,207.7,134.3z"></path><path d="M109.7,135.1l-2.6,1.2c-5.2,2.4-11,5.2-15.5,8.4c-0.8,0.6-1,1.7-0.4,2.5c0.4,0.5,0.9,0.8,1.5,0.8c0.4,0,0.8-0.1,1-0.4   c4.2-3,9.9-5.7,14.9-8l2.6-1.2c0.9-0.4,1.3-1.5,0.9-2.4C111.7,135.1,110.6,134.7,109.7,135.1z"></path><path d="M109.7,131.6c-0.2-1-1.1-1.6-2.1-1.5c-5.5,0.8-13.4,2.6-19.4,5.4c-0.9,0.4-1.3,1.5-0.9,2.4c0.3,0.6,0.9,1,1.6,1   c0.3,0,0.5,0,1-0.1c5.6-2.6,13.4-4.4,18.3-5.1C109.2,133.5,109.8,132.6,109.7,131.6z"></path><path d="M161.5,125.1c-4-1.1-9.2-3.8-12-7.1c2.6-0.1,5-0.4,7-1c1-0.3,1.6-1,1.9-1.9c0.1-0.5,0.2-1,0-1.5c-0.5-1.5-2-2.3-3.4-1.9   c-4.5,1.3-12.8,1.1-18.4,0.3c-1.5-0.2-2.9,0.8-3.1,2.3c-0.1,0.6,0,1.2,0.3,1.7c0.4,0.7,1.1,1.3,2,1.4c1.9,0.3,4.4,0.5,7,0.6   c-3,3.7-6.4,6.3-10.2,7.8c-0.6,0.2-1,0.6-1.3,1c-0.5,0.7-0.6,1.6-0.3,2.5c0.4,1.1,1.4,1.8,2.5,1.8c0.2,0,0.3,0,0.5-0.1   c0.2,0,0.3-0.1,0.5-0.2c4.4-1.6,8.3-4.5,11.7-8.4c3.8,3.9,9.5,6.7,13.9,7.9c0,0,0,0,0,0c1.4,0.4,2.9-0.5,3.3-1.9   c0.2-0.8,0-1.5-0.4-2.2C162.7,125.7,162.1,125.3,161.5,125.1z"></path></g></svg>