<svg xmlns="http://www.w3.org/2000/svg" xmlns:xlink="http://www.w3.org/1999/xlink" version="1.1" x="0px" y="0px" viewBox="0 0 90 90" enable-background="new 0 0 90 90" xml:space="preserve"><path d="M76.046,9.532c-0.843-0.973-2.015-1.497-3.481-1.556c-2.339-0.096-4.79,1.611-6.42,2.904  c-3.742,2.968-6.574,6.955-9.313,10.811c-0.334,0.471-0.667,0.94-0.999,1.403c-0.143,0.198-0.285,0.397-0.43,0.594  c-0.322,0.448-0.655,0.912-0.979,1.377c-2.366-0.702-4.823-1.058-7.339-1.058h-4.168c-2.516,0-4.972,0.356-7.338,1.058  c-0.324-0.465-0.657-0.929-0.98-1.377c-0.144-0.197-0.286-0.396-0.429-0.594c-0.332-0.463-0.665-0.932-1-1.403  c-2.739-3.856-5.571-7.843-9.313-10.811c-1.63-1.293-4.079-3.002-6.42-2.904c-1.467,0.06-2.639,0.583-3.482,1.556  c-1.912,2.207-1.52,6.055-1.258,8.6c0.208,2.048,0.608,4.077,0.994,6.038c0.131,0.662,0.261,1.324,0.384,1.986  c0.555,2.986,1.282,6.173,2.289,10.033c0.441,1.687,0.918,3.41,1.42,5.122c0.243,0.825,0.5,1.679,0.767,2.538  c0.055,0.181,0.15,0.404,0.27,0.688c0.122,0.291,0.363,0.861,0.428,1.139c-0.9,2.473-1.356,5.072-1.356,7.727  c0,5.993,2.319,11.627,6.532,15.883l-0.633,1.82c-0.214,0.456-1.245,2.859-0.443,5.3c0.502,1.527,1.594,2.736,3.245,3.593  c0.37,0.273,1.582,1.064,3.296,1.064l0,0c1.156,0,2.286-0.36,3.36-1.073l0.203-0.128c1.185,0.889,3.865,2.168,9.466,2.168h4.168  c5.6,0,8.278-1.277,9.467-2.168l0.203,0.128c1.073,0.713,2.204,1.073,3.359,1.073c1.715,0,2.927-0.791,3.296-1.064  c1.651-0.856,2.743-2.065,3.245-3.593c0.802-2.44-0.229-4.844-0.442-5.3l-0.634-1.82c4.212-4.256,6.532-9.89,6.532-15.883  c0-2.655-0.457-5.254-1.357-7.727c0.065-0.277,0.307-0.848,0.429-1.139c0.119-0.284,0.214-0.507,0.269-0.688  c0.268-0.859,0.524-1.713,0.767-2.538c0.502-1.711,0.979-3.435,1.421-5.122c1.006-3.86,1.734-7.047,2.288-10.033  c0.124-0.663,0.254-1.325,0.385-1.986c0.386-1.961,0.785-3.99,0.994-6.038C77.565,15.586,77.958,11.738,76.046,9.532z   M34.461,35.753C36.53,30.875,39.297,27.16,45,27.16c5.702,0,8.464,3.705,10.538,8.593c0.609,1.436,0.77,3.195,0.179,4.661  c-0.693,1.718-2.748,1.886-3.668,3.426c-0.542,0.905-0.865,2.12-0.865,3.249c0,0.919,0.222,1.732,0.545,2.433  c-3.108-0.631-6.48-0.404-9.637-0.386c-0.551,0.003-1.099,0.026-1.646,0.073c-0.302,0.026-2.062,0.068-2.174,0.312  c0.324-0.7,0.545-1.514,0.545-2.433c0-1.129-0.323-2.344-0.865-3.249c-0.797-1.333-2.621-1.474-3.375-2.829  C33.687,39.412,33.763,37.398,34.461,35.753z M18.082,19.762c0,0-2.49-13.583,11.731,8.663c0,0-5.43,3.987-7.543,10.81  C22.269,39.046,18.145,23.357,18.082,19.762z M20.195,51.66c0-3.014,2.445-5.459,5.46-5.459c3.015,0,5.459,2.445,5.459,5.459  c0,3.016-2.445,5.461-5.459,5.461C22.64,57.121,20.195,54.676,20.195,51.66z M47.084,79.916h-4.168  c-4.096,0-6.333-0.717-7.479-1.303L45,72.601l9.564,6.013C53.419,79.2,51.183,79.916,47.084,79.916z M64.646,75.746  c-0.33,1.003-1.098,1.815-2.281,2.412c-0.064,0.032-0.135,0.078-0.19,0.123c-0.009,0.007-0.854,0.668-2.062,0.668  c-0.735,0-1.477-0.245-2.199-0.727c-0.008-0.006-0.017-0.012-0.024-0.016L46.057,70.77V59.445c0-0.585-0.473-1.057-1.057-1.057  s-1.057,0.472-1.057,1.057V70.77L32.11,78.207c-0.008,0.004-0.016,0.01-0.024,0.016c-0.724,0.481-1.464,0.727-2.2,0.727  c-1.208,0-2.053-0.661-2.055-0.662c-0.061-0.051-0.127-0.094-0.198-0.129c-3.875-1.956-2.134-5.749-1.924-6.172  c0.021-0.042,0.04-0.085,0.056-0.13l4.54-13.072c0.007-0.02,0.013-0.04,0.019-0.06c0.719-2.547,2.453-4.831,4.876-5.973  c3.167-1.491,6.516-1.479,9.945-1.476c4.304,0.003,10.081,0.045,12.82,4.037c0.676,0.986,1.386,2.257,1.712,3.411  c0.006,0.02,0.011,0.04,0.018,0.06l4.54,13.072c0.016,0.045,0.034,0.088,0.056,0.13C64.3,72.005,65.238,73.944,64.646,75.746z   M64.345,57.121c-3.014,0-5.459-2.445-5.459-5.461c0-3.014,2.445-5.459,5.459-5.459c3.016,0,5.461,2.445,5.461,5.459  C69.806,54.676,67.36,57.121,64.345,57.121z M71.918,19.762c-0.063,3.595-4.187,19.284-4.187,19.473  c-2.114-6.822-7.544-10.81-7.544-10.81C74.409,6.18,71.918,19.762,71.918,19.762z M29.355,51.66c0-2.043-1.657-3.699-3.7-3.699  c-2.044,0-3.701,1.656-3.701,3.699c0,2.045,1.656,3.701,3.701,3.701C27.698,55.361,29.355,53.705,29.355,51.66z M23.66,53.737  c-0.574,0-1.038-0.466-1.038-1.038c0-0.573,0.464-1.039,1.038-1.039c0.573,0,1.037,0.466,1.037,1.039  C24.697,53.271,24.232,53.737,23.66,53.737z M64.345,47.961c-2.043,0-3.699,1.656-3.699,3.699c0,2.045,1.656,3.701,3.699,3.701  c2.045,0,3.701-1.656,3.701-3.701C68.046,49.617,66.39,47.961,64.345,47.961z M62.351,53.737c-0.573,0-1.038-0.466-1.038-1.038  c0-0.573,0.465-1.039,1.038-1.039s1.037,0.466,1.037,1.039C63.388,53.271,62.924,53.737,62.351,53.737z M50.579,53.789  c-1.438-1.013-2.84-1.101-4.27-1.105l-0.524-0.002c-0.523-0.004-1.047-0.004-1.57,0l-0.526,0.002  c-1.428,0.005-2.831,0.093-4.268,1.105c-2.096,1.476-2.683,4.416-1.285,6.419c0.913,1.308,2.68,1.737,4.021,0.98  c0.849-0.479,2.166-1.663,1.451-4.204c-0.158-0.562-0.74-0.89-1.303-0.731s-0.89,0.741-0.731,1.304  c0.344,1.222-0.056,1.565-0.456,1.791c-0.397,0.225-0.958,0.068-1.248-0.349c-0.812-1.162-0.247-2.769,0.768-3.482  c0.855-0.603,1.702-0.715,3.059-0.72l0.531-0.002c0.516-0.003,1.031-0.003,1.547,0l0.529,0.002c1.357,0.005,2.204,0.117,3.061,0.72  c1.014,0.714,1.578,2.32,0.768,3.482c-0.291,0.417-0.852,0.573-1.248,0.349c-0.4-0.226-0.8-0.569-0.457-1.791  c0.159-0.562-0.169-1.146-0.731-1.304c-0.562-0.159-1.144,0.17-1.303,0.731c-0.714,2.541,0.603,3.725,1.451,4.204  c0.447,0.253,0.942,0.374,1.437,0.374c0.988,0,1.977-0.482,2.584-1.354C53.263,58.205,52.675,55.265,50.579,53.789z"></path></svg>