<svg xmlns="http://www.w3.org/2000/svg" xmlns:xlink="http://www.w3.org/1999/xlink" version="1.1" x="0px" y="0px" viewBox="0 0 100 100" enable-background="new 0 0 100 100" xml:space="preserve"><g><path d="M21.8,34.4c0.3,0.3,0.6,0.4,1,0.4c0.4,0,0.8-0.2,1.1-0.5c0.6-0.6,0.5-1.6-0.1-2.1l-7.3-6.5c-0.6-0.6-1.6-0.5-2.1,0.1   c-0.6,0.6-0.5,1.6,0.1,2.1L21.8,34.4z"></path><path d="M17.3,40c0.7,0,1.3-0.4,1.5-1.1c0.2-0.8-0.3-1.6-1.1-1.8l-6.4-1.7c-0.8-0.2-1.6,0.3-1.8,1.1c-0.2,0.8,0.3,1.6,1.1,1.8   l6.4,1.7C17.1,40,17.2,40,17.3,40z"></path><path d="M40.6,26.7C40.6,26.7,40.6,26.7,40.6,26.7c0.8,0,1.5-0.7,1.5-1.5l0.1-7.4c0-0.8-0.7-1.5-1.5-1.5c0,0,0,0,0,0   c-0.8,0-1.5,0.7-1.5,1.5l-0.1,7.4C39.1,26,39.8,26.7,40.6,26.7z"></path><path d="M47.5,26.3c0.1,0,0.3,0.1,0.4,0.1c0.6,0,1.2-0.4,1.4-1.1l1.9-6.1c0.2-0.8-0.2-1.6-1-1.9c-0.8-0.2-1.6,0.2-1.9,1l-1.9,6.1   C46.2,25.3,46.7,26.1,47.5,26.3z"></path><path d="M29.8,28.8c0.2,0.6,0.8,0.9,1.4,0.9c0.2,0,0.4,0,0.6-0.1c0.8-0.3,1.1-1.2,0.8-2l-2.2-5.3c-0.3-0.8-1.2-1.1-2-0.8   c-0.8,0.3-1.1,1.2-0.8,2L29.8,28.8z"></path><path d="M85.8,65c0,0,0-0.1,0-0.1c0-0.1,0-0.1-0.1-0.2c0,0,0-0.1,0-0.1c0-0.1-0.1-0.2-0.1-0.3c0,0,0,0,0,0L74.3,48.8   c-0.5-1.1-3.2-6.2-10.6-7.7c0.6-2.1,0.2-4.6-1.4-6.6c-0.9-1.1-2-1.9-3.2-2.5l0-1.7c0-0.8-0.7-1.5-1.5-1.5c0,0,0,0,0,0   c-0.8,0-1.5,0.7-1.5,1.5l0,1.1c-1.2,0.1-2.2,0.4-3.1,1.1c-2.5,1.9-2.8,5.6-1,8.6c-13.9,1.9-33.5,7.3-34.5,7.5c0,0-0.1,0-0.1,0.1   c0,0-0.1,0-0.1,0c-0.1,0-0.2,0.1-0.2,0.1c0,0,0,0,0,0c0,0,0,0,0,0c-0.1,0.1-0.2,0.1-0.2,0.2c0,0,0,0-0.1,0.1c0,0.1-0.1,0.1-0.1,0.2   c0,0,0,0.1,0,0.1c0,0.1,0,0.1-0.1,0.2c0,0,0,0.1,0,0.1c0,0.1,0,0.1,0,0.2c0,0,0,0,0,0.1v7.2c-1.7,0.9-3.6,2.2-3.5,3.8   c0,0.5,0.3,1.5,1.7,2c0.1,0,0.2,0.1,0.3,0.1c0.2,0.2,0.5,0.4,0.8,0.4v6.8c0,0.7,0.5,1.3,1.1,1.5l65.4,16.2c0.1,0,0.2,0,0.4,0   c0.3,0,0.6-0.1,0.8-0.3c0.4-0.2,0.6-0.6,0.6-1l1.1-8.7l0,0l0,0c0,0,0-0.1,0-0.1c0-0.1,0-0.1,0-0.2c0-0.1,0-0.1,0-0.2   c0,0,0-0.1,0-0.1l-0.7-2.7c0.2-0.2,0.3-0.5,0.3-0.7l1.1-8.9c0,0,0-0.1,0-0.1c0,0,0-0.1,0-0.1C85.8,65.1,85.8,65,85.8,65z    M62.7,75.6c-0.3,0.2-0.5,0.5-0.7,0.7c-0.2,0.3-0.4,0.4-0.5,0.5c-0.1-0.2-0.2-0.4-0.3-0.6c-0.1-0.2-0.1-0.4-0.3-0.6c0,0,0,0,0,0   c0,0-0.1-0.2-0.3-0.4c-0.4-0.5-1.3-1.6-2.2-2.6c-0.6-0.7-1.2-1.3-1.7-1.9c-0.5-0.5-1.3-1.5-2.5-1.2c-0.8,0.2-1.1,0.8-1.3,1.2   c-0.1,0.1-0.1,0.3-0.1,0.4c0,0,0,0,0,0c-0.6,0.3-1.2,0.5-2.3,0.2c-0.2-0.2-0.3-0.6-0.4-1.3c-0.1-0.6-0.1-1.4,0-2.1l5.8,1.1l4.1,1   l-0.2,1.5c0,0.2,0,0.5,0.1,0.7c0.2,0.5,0.6,0.9,1.2,1c0.1,0,0.2,0,0.2,0c0.5,0,0.9-0.2,1.2-0.6c0.1-0.2,0.2-0.4,0.3-0.6l0.2-1.2   l6.9,1.7c-1.1,0.1-2.2,0.4-3.2,0.9C65.1,73.8,63.8,74.6,62.7,75.6C62.7,75.6,62.7,75.6,62.7,75.6z M40.1,70.1   c-0.3,0.2-0.6,0.3-0.8,0.3c-0.1,0-0.2,0-0.3,0c-0.1,0-0.1-0.1-0.2-0.1c-0.3-0.1-0.7-0.4-1-0.8c-0.2-0.2-0.4-0.5-0.5-0.8   c-0.4-0.9-1.2-1.7-2-2.4c-1.3-1.1-2.9-1.8-4-1.8c-0.4,0-0.9,0.1-1.4,0.4c-0.3,0.2-0.6,0.6-0.7,1.2c0,0.2-0.1,0.3-0.7,0.6   c-0.2,0.1-0.3,0.1-0.3,0.1c-0.3-0.2-0.7-1.3-0.9-1.8l-0.1-0.2c-0.1-0.3-0.2-0.5-0.4-0.7c-0.9-1.5-2.4-2.6-4.7-3.1   c-1.1-0.2-2.3-0.4-3.7-0.4c-0.7,0-1.3,0-1.8,0c0.3-0.2,0.7-0.4,1-0.6c0.2-0.1,0.4-0.3,0.5-0.4l17.9,4.4l4.1,1L39.5,65l5.4,1.5   c-0.6,0.4-1.3,1-2.1,1.6c-0.7,0.5-1.4,1.1-2.1,1.5C40.5,69.8,40.3,69.9,40.1,70.1z M78.2,75c-0.7-0.3-1.1-0.6-1.6-0.9   c-0.1-0.1-0.3-0.1-0.4-0.2l4,1c0,0.2,0,0.4-0.1,0.6c0,0.2-0.1,0.5-0.1,0.6c0,0-0.1-0.1-0.1-0.1c-0.3-0.2-0.7-0.5-1.2-0.8   C78.5,75.2,78.3,75.1,78.2,75z M82,71.7l-0.1,0.6l-1.4-0.4l-4.8-1.2L75,70.6l-14-3.4L19.3,56.8v-4.7L54.1,61c0,0,0.1,0,0.1,0   l13.5,2.2l3.3,0.5c0.8,0.1,1.5-0.4,1.7-1.1c0,0,0-0.1,0-0.1c0,0,0,0,0,0c0.1-0.8-0.4-1.6-1.2-1.7l-7.7-1.3l-9-1.5l-30.9-7.9   c7.6-1.9,21.2-5.2,30.8-6.2c0.5,0.3,1,0.6,1.5,0.7l0,4.7c0,0.8,0.7,1.5,1.5,1.5c0,0,0,0,0,0c0.8,0,1.5-0.7,1.5-1.5l0-4.4   c1-0.1,1.9-0.5,2.7-1.1c0,0,0.1,0,0.1-0.1c7.5,1.1,9.6,6,9.7,6.3c0,0.1,0.1,0.2,0.2,0.3l4.4,6.1l2.5,3.4l0.6,0.9l1.5,2.1l-1.1-0.2   l-1.6-0.3l-1.4-0.3c-0.7-0.2-1.4,0.3-1.7,0.9c0,0.1,0,0.1,0,0.2c0,0,0,0,0,0.1c-0.2,0.8,0.4,1.6,1.2,1.8l2.7,0.5l1.6,0.3l1.6,0.3   l0.5,0.1l-0.1,1.2L82,71.7z M54.8,40.2c-1.4-1.8-1.4-4.2-0.1-5.2c0.4-0.3,0.8-0.4,1.3-0.5c0,0,0,0,0,0l0,0.4c0,0.8,0.7,1.5,1.5,1.5   c0,0,0,0,0,0c0.6,0,1.2-0.4,1.4-0.9c0,0,0,0,0.1,0c0.3,0.2,0.6,0.5,0.8,0.8c1.1,1.4,1.3,3.2,0.7,4.4c-0.2,0.3-0.4,0.6-0.7,0.8   c-0.2,0.2-0.5,0.3-0.8,0.4c-0.2,0.1-0.5,0.1-0.8,0.1c-0.7,0-1.5-0.3-2.2-0.7c-0.2-0.1-0.4-0.3-0.6-0.5C55.2,40.6,55,40.4,54.8,40.2   z M81.2,85L18.6,69.5V65l3.8,1c0.6,1.1,1.8,2.1,3.8,2.8c0.3,0.3,0.7,0.6,1.1,0.8c0.5,0.2,1.1,0.3,1.9,0c0.5,0.1,1.1,0.2,1.7,0.2   c1.5,0.2,2.8,0.2,3.8,0.2c0.8,1.6,2.1,2.8,3.5,3.2c0.4,0.1,0.7,0.2,1.1,0.2c0.8,0,1.6-0.2,2.4-0.7c0.5-0.3,1-0.7,1.6-1.1   c3,1.8,7.3,3.4,13.5,4c0.7,0.8,1.2,1.5,1.5,1.8c0.3,0.7,0.9,2.2,2.4,2.5c0.2,0,0.4,0.1,0.6,0.1c1,0,1.9-0.5,2.8-1.6   c0.7-0.8,1.7-1.5,2.7-2l10.7,1.8c0.2,0.1,0.3,0.2,0.5,0.3c0.7,0.5,1.9,1.4,3.5,0.3c0.2-0.1,0.3-0.3,0.4-0.4L81.2,85z"></path></g></svg>