<svg xmlns="http://www.w3.org/2000/svg" xmlns:xlink="http://www.w3.org/1999/xlink" xmlns:sketch="http://www.bohemiancoding.com/sketch/ns" viewBox="0 0 91 91" version="1.1" x="0px" y="0px"><title>rect24724</title><desc>Created with Sketch.</desc><g stroke="none" stroke-width="1" fill="none" fill-rule="evenodd" sketch:type="MSPage"><path d="M22.6104,0.5051 L22.6104,8.0051 L30.1104,8.0051 L37.6104,8.0051 L45.1104,8.0051 L52.6104,8.0051 L60.1104,8.0051 L67.6104,8.0051 L67.6104,0.5051 L60.1104,0.5051 L52.6104,0.5051 L45.1104,0.5051 L37.6104,0.5051 L30.1104,0.5051 L22.6104,0.5051 L22.6104,0.5051 Z M67.6104,8.0051 L67.6104,15.5051 L75.1104,15.5051 L75.1104,8.0051 L67.6104,8.0051 L67.6104,8.0051 Z M75.1104,15.5051 L75.1104,23.0051 L82.6104,23.0051 L82.6104,15.5051 L75.1104,15.5051 L75.1104,15.5051 Z M82.6104,23.0051 L82.6104,30.5051 L82.6104,38.0051 L82.6104,45.5051 L82.6104,53.0051 L82.6104,60.5051 L82.6104,68.0051 L90.1104,68.0051 L90.1104,60.5051 L90.1104,53.0051 L90.1104,45.5051 L90.1104,38.0051 L90.1104,30.5051 L90.1104,23.0051 L82.6104,23.0051 L82.6104,23.0051 Z M82.6104,68.0051 L75.1104,68.0051 L75.1104,75.5051 L82.6104,75.5051 L82.6104,68.0051 L82.6104,68.0051 Z M75.1104,75.5051 L67.6104,75.5051 L67.6104,83.0051 L75.1104,83.0051 L75.1104,75.5051 L75.1104,75.5051 Z M67.6104,83.0051 L60.1104,83.0051 L52.6104,83.0051 L45.1104,83.0051 L37.6104,83.0051 L30.1104,83.0051 L22.6104,83.0051 L22.6104,90.5051 L30.1104,90.5051 L37.6104,90.5051 L45.1104,90.5051 L52.6104,90.5051 L60.1104,90.5051 L67.6104,90.5051 L67.6104,83.0051 L67.6104,83.0051 Z M22.6104,83.0051 L22.6104,75.5051 L15.1104,75.5051 L15.1104,83.0051 L22.6104,83.0051 L22.6104,83.0051 Z M15.1104,75.5051 L15.1104,68.0051 L7.6104,68.0051 L7.6104,75.5051 L15.1104,75.5051 L15.1104,75.5051 Z M7.6104,68.0051 L7.6104,60.5051 L7.6104,53.0051 L7.6104,45.5051 L7.6104,38.0051 L7.6104,30.5051 L7.6104,23.0051 L0.1104,23.0051 L0.1104,30.5051 L0.1104,38.0051 L0.1104,45.5051 L0.1104,53.0051 L0.1104,60.5051 L0.1104,68.0051 L7.6104,68.0051 L7.6104,68.0051 Z M7.6104,23.0051 L15.1104,23.0051 L15.1104,15.5051 L7.6104,15.5051 L7.6104,23.0051 L7.6104,23.0051 Z M15.1104,15.5051 L22.6104,15.5051 L22.6104,8.0051 L15.1104,8.0051 L15.1104,15.5051 L15.1104,15.5051 Z M52.6104,15.5051 L52.6104,23.0051 L60.1104,23.0051 L60.1104,15.5051 L52.6104,15.5051 L52.6104,15.5051 Z M52.6104,23.0051 L45.1104,23.0051 L45.1104,30.5051 L52.6104,30.5051 L52.6104,23.0051 L52.6104,23.0051 Z M45.1104,30.5051 L37.6104,30.5051 L37.6104,38.0051 L30.1104,38.0051 L22.6104,38.0051 L15.1104,38.0051 L15.1104,45.5051 L22.6104,45.5051 L22.6104,53.0051 L22.6104,60.5051 L22.6104,68.0051 L30.1104,68.0051 L30.1104,60.5051 L37.6104,60.5051 L37.6104,68.0051 L30.1104,68.0051 L30.1104,75.5051 L37.6104,75.5051 L45.1104,75.5051 L52.6104,75.5051 L60.1104,75.5051 L60.1104,68.0051 L52.6104,68.0051 L45.1104,68.0051 L45.1104,60.5051 L52.6104,60.5051 L60.1104,60.5051 L60.1104,68.0051 L67.6104,68.0051 L67.6104,60.5051 L67.6104,53.0051 L67.6104,45.5051 L75.1104,45.5051 L75.1104,38.0051 L67.6104,38.0051 L60.1104,38.0051 L52.6104,38.0051 L45.1104,38.0051 L45.1104,30.5051 L45.1104,30.5051 Z M30.1104,45.5051 L37.6104,45.5051 L37.6104,53.0051 L30.1104,53.0051 L30.1104,45.5051 L30.1104,45.5051 Z M45.1104,45.5051 L52.6104,45.5051 L60.1104,45.5051 L60.1104,53.0051 L52.6104,53.0051 L45.1104,53.0051 L45.1104,45.5051 L45.1104,45.5051 Z" fill="#000000" sketch:type="MSShapeGroup"></path></g></svg>