<svg xmlns="http://www.w3.org/2000/svg" xmlns:xlink="http://www.w3.org/1999/xlink" version="1.1" x="0px" y="0px" viewBox="0 0 100 100" enable-background="new 0 0 100 100" xml:space="preserve"><g><path d="M80.471,15H19.529C17.032,15,15,17.031,15,19.529v60.941C15,82.968,17.032,85,19.529,85h60.941   C82.968,85,85,82.968,85,80.471V19.529C85,17.031,82.968,15,80.471,15z M77.16,60.66H51.557v-1.462H77.16V60.66z M48.443,60.66   H22.84v-1.462h25.604V60.66z M22.84,56.084V37.778c0.029,0.002,0.057,0.009,0.086,0.009c0.859,0,1.557-0.697,1.557-1.557v-5.179   c0-0.86-0.697-1.556-1.557-1.556c-0.029,0-0.057,0.006-0.086,0.008V18.112h25.604v37.972H22.84z M22.84,70.496   c0.029,0.001,0.057,0.009,0.086,0.009c0.859,0,1.557-0.697,1.557-1.557v-5.176h23.961v18.115H22.84V70.496z M51.557,63.772h23.961   v5.176c0,0.86,0.697,1.557,1.557,1.557c0.029,0,0.057-0.008,0.086-0.009v11.391H51.557V63.772z M77.16,29.503   c-0.029-0.001-0.057-0.008-0.086-0.008c-0.86,0-1.557,0.696-1.557,1.556v5.179c0,0.86,0.697,1.557,1.557,1.557   c0.029,0,0.057-0.007,0.086-0.009v18.306H51.557V18.112H77.16V29.503z M18.113,80.471V19.529c0-0.782,0.635-1.417,1.417-1.417   h0.198v39.528v4.576v19.67h-0.198C18.748,81.887,18.113,81.251,18.113,80.471z M81.887,80.471c0,0.781-0.635,1.416-1.416,1.416   h-0.198v-19.67v-4.576V18.112h0.198c0.781,0,1.416,0.635,1.416,1.417V80.471z"></path><path d="M58.554,50.241h-2.845c-0.86,0-1.557,0.697-1.557,1.556c0,0.86,0.697,1.557,1.557,1.557h2.845   c0.859,0,1.556-0.697,1.556-1.557C60.109,50.938,59.413,50.241,58.554,50.241z"></path><path d="M44.291,50.241h-2.845c-0.86,0-1.556,0.697-1.556,1.556c0,0.86,0.696,1.557,1.556,1.557h2.845   c0.86,0,1.556-0.697,1.556-1.557C45.847,50.938,45.151,50.241,44.291,50.241z"></path><path d="M46.823,33.641c0-5.568-4.53-10.099-10.098-10.099c-5.569,0-10.099,4.531-10.099,10.099s4.53,10.099,10.099,10.099   C42.293,43.74,46.823,39.209,46.823,33.641z M36.725,40.627c-3.852,0-6.985-3.134-6.985-6.986c0-3.853,3.133-6.986,6.985-6.986   c3.853,0,6.985,3.133,6.985,6.986C43.71,37.493,40.577,40.627,36.725,40.627z"></path><path d="M63.275,43.74c5.569,0,10.099-4.53,10.099-10.099s-4.529-10.099-10.099-10.099c-5.568,0-10.098,4.531-10.098,10.099   S57.707,43.74,63.275,43.74z M63.275,26.655c3.853,0,6.987,3.133,6.987,6.986c0,3.852-3.134,6.986-6.987,6.986   c-3.852,0-6.985-3.134-6.985-6.986C56.29,29.788,59.423,26.655,63.275,26.655z"></path></g></svg>