<svg xmlns="http://www.w3.org/2000/svg" xmlns:xlink="http://www.w3.org/1999/xlink" version="1.1" x="0px" y="0px" viewBox="0 0 100 100" style="enable-background:new 0 0 100 100;" xml:space="preserve"><g><path d="M49.6,62.2c1.1,0,2,0.6,2-0.5s-0.9-2-2-2s-2,0.9-2,2S48.5,62.2,49.6,62.2z"></path><path d="M48.9,69.8h-0.5c-2.9,0-4.5,1.9-4.6,3.8c-0.1,1.7,1.1,3.7,4,4c0.1,0,0.3,0,0.5,0c0.1,0,0.3,0,0.4,0l0.6,0c0,0,0.1,0,0.1,0   c3.5,0,5.4-0.6,6.2-1.9c0.4-0.8,0.4-1.7-0.1-2.5C54.5,71.3,51.4,69.8,48.9,69.8z M49.3,74.5l-0.6,0c-0.3,0-0.5,0-0.6,0   c-0.8-0.1-1.4-0.4-1.4-0.9c0-0.5,0.6-0.9,1.7-0.9h0.5c1.4,0,3.1,0.8,3.8,1.4C52.2,74.3,51.1,74.5,49.3,74.5z"></path><circle cx="40" cy="55.8" r="2"></circle><circle cx="58.1" cy="55.8" r="2"></circle><path d="M79.3,54.8c-0.2,0-0.3,0-0.5,0c-1.1-1.8-2.9-3.2-5.1-3.7c3.7-8.8,3.3-18.5-1.2-26.2c-4.6-7.8-12.9-12.3-22.6-12.3   c-15.2,0-27.7,8.5-33.6,22.7c-6,14.5-3.1,31.2,7.2,41.5c0.4,0.4,0.9,0.6,1.4,0.6c0.2,0,0.4,0,0.6-0.1c0.7-0.2,1.2-0.8,1.4-1.5   c0-0.1,0.5-2.8,1.6-6.7c0.5,1.6,1.3,3.1,2.3,4.4l6.2,8c0.8,1,5,5.7,9,5.7h7.9c4.1,0,8.3-4.8,9.1-5.8l6.2-8c1.4-1.8,2.4-4,2.8-6.2   c0.5,0,1-0.1,1.4-0.1c1.4,1.8,3.6,2.9,6,2.9c4.2,0,7.7-3.4,7.7-7.7C86.9,58.2,83.5,54.8,79.3,54.8z M74.9,56.2   c-1.1,0.8-2,1.8-2.6,3.1c-0.3,0.7,0,1.6,0.7,2c0.7,0.3,1.6,0,2-0.7c0.2-0.5,0.6-1,1-1.4c0,2.2-1.7,4-3.9,4.2v-8.5   C73.2,55,74.2,55.5,74.9,56.2z M60.8,44.5c-4.9,0-9,3.6-9.7,8.4h-4c-0.1-0.7-0.3-1.5-0.6-2.2c-1.3-3.3-4.3-5.5-7.6-6   c7.2-9.2,17.6-14.6,20.8-16.1c5.1,3.6,8.1,12.1,8.4,19.2C66.3,45.8,63.7,44.5,60.8,44.5z M67.7,54.4c0,3.8-3.1,6.9-6.9,6.9   c-3.8,0-6.9-3.1-6.9-6.9s3.1-6.9,6.9-6.9C64.6,47.5,67.7,50.6,67.7,54.4z M36.8,47.5c2.9-0.2,5.7,1.4,6.9,4.3   c1.4,3.5-0.3,7.6-3.8,9c-1.7,0.7-3.6,0.7-5.3,0c-1-0.4-1.9-1.1-2.6-1.9C32.9,54.7,34.6,50.9,36.8,47.5z M23.6,71.2   C16.6,62,15,48.7,19.8,36.9c5.3-12.7,16.5-20.3,30-20.3c8.4,0,15.3,3.7,19.2,10.3c3,5,3.8,11.1,2.7,17.1   c-1.1-7.6-4.6-15.8-10.9-19.4c-0.5-0.3-1.2-0.4-1.8-0.1c-0.3,0.1-7.9,3.4-15.7,9.9c-4.8,4.1-8.6,8.5-11.2,13.3c0,0-0.1,0.1-0.1,0.1   C27.8,55.3,25,65.7,23.6,71.2z M65.9,71.2l-6.1,7.9c-1.5,1.8-4.3,4.3-6,4.3h-7.9c-1.6,0-4.5-2.6-5.9-4.2l-6.2-8   c-1.4-1.8-2.2-4.1-2.2-6.5c0-0.8,0-1.5,0.1-2.3c0.6,0.4,1.2,0.8,1.9,1.1c1.2,0.5,2.5,0.8,3.9,0.8c1.3,0,2.5-0.2,3.7-0.7   c3.4-1.4,5.5-4.4,6.1-7.7h4c0.7,4.8,4.8,8.4,9.8,8.4c2.9,0,5.5-1.3,7.3-3.3v3.7C68.1,67,67.4,69.3,65.9,71.2z M79.3,67.1   c-1.1,0-2.2-0.4-3-1.1c2.2-1.5,3.7-4,3.7-6.9c0-0.4,0-0.9-0.1-1.3c2.3,0.3,4.1,2.2,4.1,4.6C84,65,81.9,67.1,79.3,67.1z"></path></g></svg>