<svg xmlns="http://www.w3.org/2000/svg" xmlns:xlink="http://www.w3.org/1999/xlink" version="1.1" x="0px" y="0px" viewBox="0 0 100 100" style="enable-background:new 0 0 100 100;" xml:space="preserve"><g><path d="M51.2,71.2c-0.4,0.4-1.2,0.4-1.6,0c-0.5-0.5-1.4-0.5-1.9,0c-0.5,0.5-0.5,1.4,0,1.9c0.7,0.7,1.7,1.1,2.7,1.1   c1,0,1.9-0.4,2.7-1.1c0.5-0.5,0.5-1.4,0-1.9C52.5,70.7,51.7,70.7,51.2,71.2z"></path><path d="M81,41.6c-3.4-0.8-4-3.7-4.4-6.7c-0.2-1.9-0.5-3.4-0.9-4.8c-5.6-19.9-23.9-16.5-25.8-16.1C48,13.6,29.6,10,24.2,29.9   c-0.4,1.4-0.7,2.9-0.9,4.8c-0.3,2.9-1,5.8-4.3,6.5c-2.7,0.5-7.8,3.4-7.6,10.6c0.2,7.6,6.4,10.5,7.5,11c0.3,0.2,1.8,1.2,1.8,3.1   c0,3,0.4,6.8,3.2,9.5c2.5,2.3,6.3,3.3,11.7,3l1.9,2.5c0.5,0.6,4.6,5.5,8.6,5.5h7.6c4,0,8.2-4.9,8.7-5.5l1.8-2.3   c0.8,0.1,1.6,0.1,2.3,0.1c4.3,0,7.5-1,9.6-3c2.9-2.7,3.2-6.5,3.2-9.5c0-1.9,1.5-2.9,1.8-3.1c1.1-0.5,7.3-3.4,7.4-11   C88.7,45,83.6,42.1,81,41.6z M59.7,78.7c-1.1,1.4-4.1,4.2-5.9,4.2h-7.6c-1.6,0-4.4-2.4-5.8-4.1l-6.9-8.9c-0.8-1-1.2-2.3-1.2-3.6   V52.4H35c0.6,2.9,3.2,5.1,6.3,5.1c3.1,0,5.6-2.1,6.3-5c1.4-1.2,3.5-1.2,4.9,0c0.7,2.9,3.2,5,6.3,5c3.1,0,5.7-2.2,6.3-5.1h2.8v13.9   c0,1.3-0.4,2.6-1.2,3.6L59.7,78.7z M38,43.6c0.1,0,0.2-0.1,0.3-0.1c1.5-0.9,4.5-0.9,6,0c0.6,0.4,1.4,0.2,1.8-0.4   c0.4-0.6,0.2-1.4-0.4-1.8c-1-0.6-2.3-1-3.7-1.1c1.3-1.4,2.6-2.9,3.8-4.7c2.9-4.1,4.6-8.1,5.4-10.1c9.3,0.6,16.6,8.3,16.6,17.7v6.6   H65c-0.6-2.9-3.2-5.1-6.3-5.1c-3,0-5.5,2.1-6.2,4.8c-1.6-0.6-3.4-0.6-5,0c-0.7-2.8-3.2-4.8-6.2-4.8c-3.1,0-5.7,2.2-6.3,5.1h-2.8v-3   C34.2,46,36.1,45,38,43.6z M54.9,51.1c0-2.1,1.7-3.8,3.8-3.8s3.8,1.7,3.8,3.8c0,2.1-1.7,3.8-3.8,3.8S54.9,53.2,54.9,51.1z    M41.3,54.9c-2.1,0-3.8-1.7-3.8-3.8c0-2.1,1.7-3.8,3.8-3.8c2.1,0,3.8,1.7,3.8,3.8C45.1,53.2,43.4,54.9,41.3,54.9z M79.8,59.9   c-0.1,0-0.1,0.1-0.2,0.1c-0.2,0.1-3.8,2-3.7,6.3c0,2.5-0.2,5.2-2,6.9c-1.4,1.3-3.7,2-6.8,2l2.4-3.1c1.3-1.6,2-3.7,2-5.7V43.1   c0-11.8-9.6-21.3-21.3-21.3c-0.3,0-0.7,0.1-0.9,0.3c0,0,0,0,0,0c-0.4,0.2-0.6,0.6-0.8,1c-0.1,0.2-6.9,20.3-22,21.4   c-1,0.1-1.7,0.9-1.6,1.9c0.1,0.9,0.8,1.6,1.8,1.6c0,0,0.1,0,0.1,0c0.7-0.1,1.4-0.2,2.1-0.3v18.6c0,2.1,0.7,4.1,2,5.8l2.3,2.9   c-3-0.1-5.2-0.8-6.5-2.1c-1.8-1.7-2.1-4.5-2.1-6.9c0-4.2-3.6-6.2-3.8-6.3c-0.1,0-0.1-0.1-0.2-0.1c-0.2-0.1-5.2-2.1-5.4-7.8   c-0.1-5.9,4.2-7,4.8-7.1c6.1-1.4,6.8-7.1,7.1-9.6c0.2-1.7,0.5-3,0.8-4.3c4.7-17.4,20.8-13.5,21.5-13.3c0,0,0.1,0,0.1,0l0.3,0.1   c0.2,0,0.5,0,0.7,0l0.3-0.1c0,0,0.1,0,0.1,0c0.7-0.2,16.8-4,21.7,13.5c0.3,1.2,0.6,2.6,0.8,4.3c0.3,2.4,1,8.2,7.2,9.6   c0.2,0,4.9,1,4.8,7.1C85,57.8,80,59.8,79.8,59.9z"></path><path d="M48.2,59.4c1-1,2.7-1,3.6,0c0.3,0.3,0.6,0.4,0.9,0.4c0.3,0,0.7-0.1,0.9-0.4c0.5-0.5,0.5-1.4,0-1.9c-2-2-5.4-2-7.4,0   c-0.5,0.5-0.5,1.4,0,1.9C46.8,59.9,47.7,59.9,48.2,59.4z"></path><path d="M58.7,64.7c-0.3-0.7-1.1-1-1.8-0.6c-0.5,0.2-0.8,0.8-0.8,1.4c-1.7,0.8-3.9,1.3-6.2,1.3c-2.3,0-4.5-0.5-6.1-1.3   c0.1-0.6-0.2-1.1-0.7-1.4c-0.7-0.3-1.5,0-1.8,0.6l-0.7,1.6c-0.3,0.7,0,1.5,0.6,1.8c0.2,0.1,0.4,0.1,0.6,0.1c0.3,0,0.6-0.1,0.9-0.3   c2,1,4.6,1.6,7.3,1.6c2.7,0,5.3-0.6,7.3-1.6c0.2,0.2,0.6,0.4,0.9,0.4c0.2,0,0.4,0,0.6-0.1c0.7-0.3,1-1.1,0.6-1.8L58.7,64.7z"></path><circle cx="41.5" cy="51.1" r="1.8"></circle><circle cx="58.7" cy="51.1" r="1.8"></circle><path d="M55,43.7c0.2,0,0.5-0.1,0.7-0.2c0.8-0.5,1.8-0.7,3-0.7c1.1,0,2.2,0.3,3,0.7c0.6,0.4,1.4,0.2,1.8-0.4   c0.4-0.6,0.2-1.4-0.4-1.8c-1.2-0.7-2.7-1.1-4.4-1.1c-1.6,0-3.2,0.4-4.4,1.1c-0.6,0.4-0.8,1.2-0.4,1.8C54.2,43.5,54.6,43.7,55,43.7z   "></path></g></svg>